<?xml version="1.0" encoding="UTF-8"?>
<svg xmlns="http://www.w3.org/2000/svg" xmlns:xlink="http://www.w3.org/1999/xlink" width="500pt" height="500pt" viewBox="0 0 500 500" version="1.1">
<g id="surface1">
<path style=" stroke:none;fill-rule:nonzero;fill:rgb(100%,100%,100%);fill-opacity:1;" d="M 340 500 L 340 490 L 330 490 L 330 500 L 340 500 "/>
<path style=" stroke:none;fill-rule:nonzero;fill:rgb(100%,100%,100%);fill-opacity:1;" d="M 170 500 L 180 500 L 180 490 L 170 490 L 170 500 "/>
<path style=" stroke:none;fill-rule:nonzero;fill:rgb(100%,100%,100%);fill-opacity:1;" d="M 140 490 L 140 500 L 160 500 L 160 490 L 140 490 "/>
<path style=" stroke:none;fill-rule:nonzero;fill:rgb(100%,100%,100%);fill-opacity:1;" d="M 120 500 L 130 500 L 130 490 L 120 490 L 120 500 "/>
<path style=" stroke:none;fill-rule:nonzero;fill:rgb(100%,100%,100%);fill-opacity:1;" d="M 80 500 L 90 500 L 90 490 L 80 490 L 80 500 "/>
<path style=" stroke:none;fill-rule:nonzero;fill:rgb(100%,100%,100%);fill-opacity:1;" d="M 490 490 L 490 500 L 500 500 L 500 480 L 490 480 L 490 490 "/>
<path style=" stroke:none;fill-rule:nonzero;fill:rgb(100%,100%,100%);fill-opacity:1;" d="M 390 480 L 370 480 L 370 500 L 380 500 L 380 490 L 390 490 L 390 500 L 410 500 L 410 490 L 400 490 L 400 480 L 390 480 "/>
<path style=" stroke:none;fill-rule:nonzero;fill:rgb(100%,100%,100%);fill-opacity:1;" d="M 310 490 L 310 500 L 320 500 L 320 490 L 330 490 L 330 470 L 300 470 L 300 480 L 310 480 L 310 490 "/>
<path style=" stroke:none;fill-rule:nonzero;fill:rgb(100%,100%,100%);fill-opacity:1;" d="M 300 490 L 300 480 L 290 480 L 290 490 L 300 490 "/>
<path style=" stroke:none;fill-rule:nonzero;fill:rgb(100%,100%,100%);fill-opacity:1;" d="M 260 490 L 260 500 L 280 500 L 280 490 L 270 490 L 270 480 L 260 480 L 260 490 "/>
<path style=" stroke:none;fill-rule:nonzero;fill:rgb(100%,100%,100%);fill-opacity:1;" d="M 250 490 L 250 480 L 260 480 L 260 470 L 240 470 L 240 480 L 230 480 L 230 490 L 250 490 "/>
<path style=" stroke:none;fill-rule:nonzero;fill:rgb(100%,100%,100%);fill-opacity:1;" d="M 160 480 L 160 490 L 170 490 L 170 480 L 160 480 "/>
<path style=" stroke:none;fill-rule:nonzero;fill:rgb(100%,100%,100%);fill-opacity:1;" d="M 130 480 L 130 490 L 140 490 L 140 480 L 130 480 "/>
<path style=" stroke:none;fill-rule:nonzero;fill:rgb(100%,100%,100%);fill-opacity:1;" d="M 40 480 L 40 470 L 30 470 L 30 450 L 50 450 L 50 440 L 70 440 L 70 430 L 50 430 L 50 410 L 40 410 L 40 430 L 30 430 L 30 420 L 20 420 L 20 410 L 40 410 L 40 400 L 30 400 L 30 390 L 20 390 L 20 380 L 10 380 L 10 370 L 0 370 L 0 410 L 10 410 L 10 440 L 20 440 L 20 470 L 10 470 L 10 480 L 20 480 L 20 500 L 50 500 L 50 490 L 40 490 L 40 480 "/>
<path style=" stroke:none;fill-rule:nonzero;fill:rgb(100%,100%,100%);fill-opacity:1;" d="M 0 490 L 10 490 L 10 480 L 0 480 L 0 490 "/>
<path style=" stroke:none;fill-rule:nonzero;fill:rgb(100%,100%,100%);fill-opacity:1;" d="M 460 480 L 450 480 L 450 500 L 460 500 L 460 490 L 470 490 L 470 470 L 460 470 L 460 480 "/>
<path style=" stroke:none;fill-rule:nonzero;fill:rgb(100%,100%,100%);fill-opacity:1;" d="M 280 480 L 290 480 L 290 470 L 270 470 L 270 480 L 280 480 "/>
<path style=" stroke:none;fill-rule:nonzero;fill:rgb(100%,100%,100%);fill-opacity:1;" d="M 150 480 L 150 470 L 140 470 L 140 480 L 150 480 "/>
<path style=" stroke:none;fill-rule:nonzero;fill:rgb(100%,100%,100%);fill-opacity:1;" d="M 120 470 L 140 470 L 140 460 L 120 460 L 120 450 L 110 450 L 110 470 L 80 470 L 80 460 L 70 460 L 70 480 L 90 480 L 90 490 L 100 490 L 100 500 L 110 500 L 110 490 L 120 490 L 120 470 "/>
<path style=" stroke:none;fill-rule:nonzero;fill:rgb(100%,100%,100%);fill-opacity:1;" d="M 60 470 L 50 470 L 50 490 L 60 490 L 60 500 L 70 500 L 70 480 L 60 480 L 60 470 "/>
<path style=" stroke:none;fill-rule:nonzero;fill:rgb(100%,100%,100%);fill-opacity:1;" d="M 500 470 L 500 460 L 490 460 L 490 470 L 500 470 "/>
<path style=" stroke:none;fill-rule:nonzero;fill:rgb(100%,100%,100%);fill-opacity:1;" d="M 270 460 L 260 460 L 260 470 L 270 470 L 270 460 "/>
<path style=" stroke:none;fill-rule:nonzero;fill:rgb(100%,100%,100%);fill-opacity:1;" d="M 210 480 L 190 480 L 190 470 L 210 470 Z M 200 460 L 190 460 L 190 450 L 180 450 L 180 440 L 170 440 L 170 480 L 180 480 L 180 490 L 190 490 L 190 500 L 230 500 L 230 490 L 220 490 L 220 460 L 230 460 L 230 450 L 210 450 L 210 460 L 200 460 "/>
<path style=" stroke:none;fill-rule:nonzero;fill:rgb(100%,100%,100%);fill-opacity:1;" d="M 160 460 L 150 460 L 150 470 L 160 470 L 160 460 "/>
<path style=" stroke:none;fill-rule:nonzero;fill:rgb(100%,100%,100%);fill-opacity:1;" d="M 410 450 L 410 440 L 400 440 L 400 450 L 390 450 L 390 460 L 380 460 L 380 430 L 360 430 L 360 410 L 370 410 L 370 400 L 360 400 L 360 390 L 350 390 L 350 410 L 340 410 L 340 420 L 350 420 L 350 440 L 370 440 L 370 460 L 350 460 L 350 470 L 410 470 L 410 460 L 420 460 L 420 470 L 410 470 L 410 480 L 420 480 L 420 500 L 430 500 L 430 490 L 440 490 L 440 480 L 430 480 L 430 450 L 410 450 "/>
<path style=" stroke:none;fill-rule:nonzero;fill:rgb(100%,100%,100%);fill-opacity:1;" d="M 300 460 L 310 460 L 310 440 L 300 440 L 300 460 "/>
<path style=" stroke:none;fill-rule:nonzero;fill:rgb(100%,100%,100%);fill-opacity:1;" d="M 290 460 L 290 450 L 280 450 L 280 460 L 290 460 "/>
<path style=" stroke:none;fill-rule:nonzero;fill:rgb(100%,100%,100%);fill-opacity:1;" d="M 250 450 L 250 460 L 260 460 L 260 450 L 250 450 "/>
<path style=" stroke:none;fill-rule:nonzero;fill:rgb(100%,100%,100%);fill-opacity:1;" d="M 60 450 L 60 460 L 70 460 L 70 450 L 60 450 "/>
<path style=" stroke:none;fill-rule:nonzero;fill:rgb(100%,100%,100%);fill-opacity:1;" d="M 350 440 L 340 440 L 340 450 L 330 450 L 330 440 L 320 440 L 320 460 L 350 460 L 350 440 "/>
<path style=" stroke:none;fill-rule:nonzero;fill:rgb(100%,100%,100%);fill-opacity:1;" d="M 270 450 L 280 450 L 280 440 L 270 440 L 270 450 "/>
<path style=" stroke:none;fill-rule:nonzero;fill:rgb(100%,100%,100%);fill-opacity:1;" d="M 440 430 L 430 430 L 430 410 L 420 410 L 420 400 L 390 400 L 390 410 L 410 410 L 410 430 L 420 430 L 420 440 L 430 440 L 430 450 L 450 450 L 450 440 L 440 440 L 440 430 "/>
<path style=" stroke:none;fill-rule:nonzero;fill:rgb(100%,100%,100%);fill-opacity:1;" d="M 230 430 L 230 420 L 220 420 L 220 430 L 200 430 L 200 450 L 210 450 L 210 440 L 250 440 L 250 430 L 230 430 "/>
<path style=" stroke:none;fill-rule:nonzero;fill:rgb(100%,100%,100%);fill-opacity:1;" d="M 460 420 L 450 420 L 450 440 L 460 440 L 460 420 "/>
<path style=" stroke:none;fill-rule:nonzero;fill:rgb(100%,100%,100%);fill-opacity:1;" d="M 180 420 L 180 410 L 170 410 L 170 420 L 160 420 L 160 430 L 200 430 L 200 420 L 180 420 "/>
<path style=" stroke:none;fill-rule:nonzero;fill:rgb(100%,100%,100%);fill-opacity:1;" d="M 150 420 L 150 410 L 140 410 L 140 400 L 130 400 L 130 410 L 110 410 L 110 430 L 120 430 L 120 420 L 140 420 L 140 440 L 130 440 L 130 450 L 150 450 L 150 440 L 160 440 L 160 430 L 150 430 L 150 420 "/>
<path style=" stroke:none;fill-rule:nonzero;fill:rgb(100%,100%,100%);fill-opacity:1;" d="M 380 420 L 380 430 L 390 430 L 390 440 L 400 440 L 400 420 L 390 420 L 390 410 L 370 410 L 370 420 L 380 420 "/>
<path style=" stroke:none;fill-rule:nonzero;fill:rgb(100%,100%,100%);fill-opacity:1;" d="M 250 420 L 250 430 L 270 430 L 270 420 L 260 420 L 260 410 L 250 410 L 250 420 "/>
<path style=" stroke:none;fill-rule:nonzero;fill:rgb(100%,100%,100%);fill-opacity:1;" d="M 210 420 L 210 410 L 200 410 L 200 420 L 210 420 "/>
<path style=" stroke:none;fill-rule:nonzero;fill:rgb(100%,100%,100%);fill-opacity:1;" d="M 490 410 L 500 410 L 500 390 L 490 390 L 490 410 "/>
<path style=" stroke:none;fill-rule:nonzero;fill:rgb(100%,100%,100%);fill-opacity:1;" d="M 330 400 L 310 400 L 310 420 L 330 420 L 330 410 L 340 410 L 340 400 L 330 400 "/>
<path style=" stroke:none;fill-rule:nonzero;fill:rgb(100%,100%,100%);fill-opacity:1;" d="M 260 410 L 270 410 L 270 400 L 260 400 L 260 410 "/>
<path style=" stroke:none;fill-rule:nonzero;fill:rgb(100%,100%,100%);fill-opacity:1;" d="M 160 400 L 150 400 L 150 410 L 160 410 L 160 400 "/>
<path style=" stroke:none;fill-rule:nonzero;fill:rgb(100%,100%,100%);fill-opacity:1;" d="M 90 410 L 90 420 L 80 420 L 80 410 L 70 410 L 70 430 L 80 430 L 80 460 L 90 460 L 90 450 L 100 450 L 100 440 L 90 440 L 90 430 L 100 430 L 100 400 L 80 400 L 80 410 L 90 410 "/>
<path style=" stroke:none;fill-rule:nonzero;fill:rgb(100%,100%,100%);fill-opacity:1;" d="M 380 390 L 380 400 L 390 400 L 390 390 L 380 390 "/>
<path style=" stroke:none;fill-rule:nonzero;fill:rgb(100%,100%,100%);fill-opacity:1;" d="M 300 390 L 270 390 L 270 400 L 290 400 L 290 410 L 280 410 L 280 440 L 300 440 L 300 400 L 310 400 L 310 390 L 300 390 "/>
<path style=" stroke:none;fill-rule:nonzero;fill:rgb(100%,100%,100%);fill-opacity:1;" d="M 190 400 L 180 400 L 180 410 L 200 410 L 200 390 L 190 390 L 190 400 "/>
<path style=" stroke:none;fill-rule:nonzero;fill:rgb(100%,100%,100%);fill-opacity:1;" d="M 170 390 L 170 360 L 160 360 L 160 400 L 170 400 L 170 390 "/>
<path style=" stroke:none;fill-rule:nonzero;fill:rgb(100%,100%,100%);fill-opacity:1;" d="M 120 400 L 120 390 L 110 390 L 110 400 L 120 400 "/>
<path style=" stroke:none;fill-rule:nonzero;fill:rgb(100%,100%,100%);fill-opacity:1;" d="M 470 390 L 490 390 L 490 380 L 480 380 L 480 370 L 470 370 L 470 390 "/>
<path style=" stroke:none;fill-rule:nonzero;fill:rgb(100%,100%,100%);fill-opacity:1;" d="M 400 390 L 410 390 L 410 380 L 400 380 L 400 390 "/>
<path style=" stroke:none;fill-rule:nonzero;fill:rgb(100%,100%,100%);fill-opacity:1;" d="M 320 390 L 330 390 L 330 380 L 320 380 L 320 390 "/>
<path style=" stroke:none;fill-rule:nonzero;fill:rgb(100%,100%,100%);fill-opacity:1;" d="M 150 390 L 150 380 L 140 380 L 140 390 L 150 390 "/>
<path style=" stroke:none;fill-rule:nonzero;fill:rgb(100%,100%,100%);fill-opacity:1;" d="M 70 380 L 60 380 L 60 400 L 50 400 L 50 410 L 70 410 L 70 400 L 80 400 L 80 390 L 90 390 L 90 380 L 70 380 "/>
<path style=" stroke:none;fill-rule:nonzero;fill:rgb(100%,100%,100%);fill-opacity:1;" d="M 50 390 L 50 380 L 30 380 L 30 390 L 50 390 "/>
<path style=" stroke:none;fill-rule:nonzero;fill:rgb(100%,100%,100%);fill-opacity:1;" d="M 500 370 L 490 370 L 490 380 L 500 380 L 500 370 "/>
<path style=" stroke:none;fill-rule:nonzero;fill:rgb(100%,100%,100%);fill-opacity:1;" d="M 410 370 L 410 380 L 420 380 L 420 390 L 430 390 L 430 380 L 440 380 L 440 410 L 460 410 L 460 420 L 470 420 L 470 440 L 460 440 L 460 460 L 470 460 L 470 470 L 480 470 L 480 460 L 490 460 L 490 430 L 500 430 L 500 420 L 490 420 L 490 410 L 480 410 L 480 400 L 450 400 L 450 370 L 440 370 L 440 360 L 450 360 L 450 350 L 430 350 L 430 360 L 420 360 L 420 370 L 410 370 "/>
<path style=" stroke:none;fill-rule:nonzero;fill:rgb(100%,100%,100%);fill-opacity:1;" d="M 340 370 L 340 380 L 360 380 L 360 390 L 370 390 L 370 370 L 360 370 L 360 360 L 350 360 L 350 370 L 340 370 "/>
<path style=" stroke:none;fill-rule:nonzero;fill:rgb(100%,100%,100%);fill-opacity:1;" d="M 140 370 L 140 360 L 130 360 L 130 380 L 140 380 L 140 370 "/>
<path style=" stroke:none;fill-rule:nonzero;fill:rgb(100%,100%,100%);fill-opacity:1;" d="M 460 370 L 470 370 L 470 350 L 460 350 L 460 360 L 450 360 L 450 370 L 460 370 "/>
<path style=" stroke:none;fill-rule:nonzero;fill:rgb(100%,100%,100%);fill-opacity:1;" d="M 50 370 L 80 370 L 80 360 L 60 360 L 60 350 L 50 350 L 50 370 "/>
<path style=" stroke:none;fill-rule:nonzero;fill:rgb(100%,100%,100%);fill-opacity:1;" d="M 40 360 L 30 360 L 30 370 L 40 370 L 40 360 "/>
<path style=" stroke:none;fill-rule:nonzero;fill:rgb(100%,100%,100%);fill-opacity:1;" d="M 20 360 L 20 340 L 10 340 L 10 350 L 0 350 L 0 360 L 10 360 L 10 370 L 20 370 L 20 360 "/>
<path style=" stroke:none;fill-rule:nonzero;fill:rgb(100%,100%,100%);fill-opacity:1;" d="M 480 350 L 480 360 L 500 360 L 500 350 L 480 350 "/>
<path style=" stroke:none;fill-rule:nonzero;fill:rgb(100%,100%,100%);fill-opacity:1;" d="M 380 340 L 380 350 L 390 350 L 390 340 L 380 340 "/>
<path style=" stroke:none;fill-rule:nonzero;fill:rgb(100%,100%,100%);fill-opacity:1;" d="M 300 340 L 290 340 L 290 350 L 310 350 L 310 340 L 300 340 "/>
<path style=" stroke:none;fill-rule:nonzero;fill:rgb(100%,100%,100%);fill-opacity:1;" d="M 260 340 L 250 340 L 250 350 L 260 350 L 260 340 "/>
<path style=" stroke:none;fill-rule:nonzero;fill:rgb(100%,100%,100%);fill-opacity:1;" d="M 170 340 L 160 340 L 160 350 L 170 350 L 170 340 "/>
<path style=" stroke:none;fill-rule:nonzero;fill:rgb(100%,100%,100%);fill-opacity:1;" d="M 110 350 L 110 360 L 100 360 L 100 340 L 110 340 L 110 330 L 90 330 L 90 380 L 100 380 L 100 390 L 110 390 L 110 380 L 120 380 L 120 340 L 110 340 L 110 350 "/>
<path style=" stroke:none;fill-rule:nonzero;fill:rgb(100%,100%,100%);fill-opacity:1;" d="M 70 340 L 70 320 L 80 320 L 80 330 L 90 330 L 90 320 L 110 320 L 110 300 L 100 300 L 100 290 L 90 290 L 90 310 L 60 310 L 60 350 L 70 350 L 70 340 "/>
<path style=" stroke:none;fill-rule:nonzero;fill:rgb(100%,100%,100%);fill-opacity:1;" d="M 0 330 L 0 340 L 10 340 L 10 330 L 0 330 "/>
<path style=" stroke:none;fill-rule:nonzero;fill:rgb(100%,100%,100%);fill-opacity:1;" d="M 280 320 L 270 320 L 270 310 L 280 310 L 280 300 L 270 300 L 270 290 L 260 290 L 260 310 L 250 310 L 250 270 L 240 270 L 240 250 L 230 250 L 230 260 L 220 260 L 220 280 L 230 280 L 230 290 L 240 290 L 240 310 L 230 310 L 230 320 L 220 320 L 220 360 L 240 360 L 240 370 L 220 370 L 220 360 L 210 360 L 210 350 L 180 350 L 180 360 L 190 360 L 190 370 L 180 370 L 180 380 L 200 380 L 200 370 L 210 370 L 210 380 L 200 380 L 200 390 L 220 390 L 220 400 L 230 400 L 230 390 L 240 390 L 240 380 L 250 380 L 250 390 L 240 390 L 240 400 L 230 400 L 230 410 L 250 410 L 250 400 L 260 400 L 260 390 L 270 390 L 270 380 L 280 380 L 280 370 L 250 370 L 250 350 L 240 350 L 240 320 L 260 320 L 260 340 L 270 340 L 270 360 L 280 360 L 280 370 L 330 370 L 330 360 L 320 360 L 320 350 L 310 350 L 310 360 L 290 360 L 290 350 L 280 350 L 280 340 L 290 340 L 290 330 L 280 330 L 280 320 "/>
<path style=" stroke:none;fill-rule:nonzero;fill:rgb(100%,100%,100%);fill-opacity:1;" d="M 30 330 L 30 350 L 50 350 L 50 330 L 40 330 L 40 310 L 20 310 L 20 320 L 30 320 L 30 330 "/>
<path style=" stroke:none;fill-rule:nonzero;fill:rgb(100%,100%,100%);fill-opacity:1;" d="M 20 320 L 10 320 L 10 330 L 20 330 L 20 320 "/>
<path style=" stroke:none;fill-rule:nonzero;fill:rgb(100%,100%,100%);fill-opacity:1;" d="M 430 320 L 430 330 L 440 330 L 440 310 L 460 310 L 460 340 L 480 340 L 480 330 L 490 330 L 490 340 L 500 340 L 500 320 L 490 320 L 490 310 L 480 310 L 480 300 L 490 300 L 490 290 L 480 290 L 480 280 L 470 280 L 470 300 L 430 300 L 430 320 "/>
<path style=" stroke:none;fill-rule:nonzero;fill:rgb(100%,100%,100%);fill-opacity:1;" d="M 400 310 L 400 300 L 410 300 L 410 290 L 400 290 L 400 280 L 390 280 L 390 290 L 370 290 L 370 270 L 360 270 L 360 290 L 350 290 L 350 300 L 360 300 L 360 330 L 330 330 L 330 320 L 340 320 L 340 310 L 320 310 L 320 320 L 290 320 L 290 330 L 320 330 L 320 340 L 330 340 L 330 360 L 350 360 L 350 350 L 340 350 L 340 340 L 360 340 L 360 360 L 370 360 L 370 370 L 380 370 L 380 380 L 390 380 L 390 370 L 410 370 L 410 360 L 420 360 L 420 340 L 410 340 L 410 350 L 390 350 L 390 360 L 380 360 L 380 350 L 370 350 L 370 340 L 380 340 L 380 330 L 370 330 L 370 300 L 380 300 L 380 310 L 390 310 L 390 320 L 380 320 L 380 330 L 400 330 L 400 340 L 410 340 L 410 320 L 400 320 L 400 310 "/>
<path style=" stroke:none;fill-rule:nonzero;fill:rgb(100%,100%,100%);fill-opacity:1;" d="M 160 320 L 170 320 L 170 310 L 160 310 L 160 320 "/>
<path style=" stroke:none;fill-rule:nonzero;fill:rgb(100%,100%,100%);fill-opacity:1;" d="M 150 310 L 160 310 L 160 300 L 140 300 L 140 310 L 130 310 L 130 320 L 110 320 L 110 330 L 120 330 L 120 340 L 130 340 L 130 330 L 140 330 L 140 340 L 130 340 L 130 350 L 150 350 L 150 330 L 160 330 L 160 320 L 150 320 L 150 310 "/>
<path style=" stroke:none;fill-rule:nonzero;fill:rgb(100%,100%,100%);fill-opacity:1;" d="M 410 310 L 410 320 L 420 320 L 420 300 L 410 300 L 410 310 "/>
<path style=" stroke:none;fill-rule:nonzero;fill:rgb(100%,100%,100%);fill-opacity:1;" d="M 290 310 L 300 310 L 300 300 L 290 300 L 290 310 "/>
<path style=" stroke:none;fill-rule:nonzero;fill:rgb(100%,100%,100%);fill-opacity:1;" d="M 220 300 L 220 280 L 180 280 L 180 290 L 190 290 L 190 300 L 210 300 L 210 310 L 180 310 L 180 320 L 200 320 L 200 330 L 190 330 L 190 340 L 210 340 L 210 320 L 220 320 L 220 300 "/>
<path style=" stroke:none;fill-rule:nonzero;fill:rgb(100%,100%,100%);fill-opacity:1;" d="M 120 310 L 130 310 L 130 280 L 110 280 L 110 300 L 120 300 L 120 310 "/>
<path style=" stroke:none;fill-rule:nonzero;fill:rgb(100%,100%,100%);fill-opacity:1;" d="M 10 300 L 0 300 L 0 310 L 20 310 L 20 300 L 10 300 "/>
<path style=" stroke:none;fill-rule:nonzero;fill:rgb(100%,100%,100%);fill-opacity:1;" d="M 180 290 L 160 290 L 160 300 L 170 300 L 170 310 L 180 310 L 180 290 "/>
<path style=" stroke:none;fill-rule:nonzero;fill:rgb(100%,100%,100%);fill-opacity:1;" d="M 70 300 L 80 300 L 80 290 L 50 290 L 50 310 L 60 310 L 60 300 L 70 300 "/>
<path style=" stroke:none;fill-rule:nonzero;fill:rgb(100%,100%,100%);fill-opacity:1;" d="M 500 280 L 490 280 L 490 290 L 500 290 L 500 280 "/>
<path style=" stroke:none;fill-rule:nonzero;fill:rgb(100%,100%,100%);fill-opacity:1;" d="M 280 280 L 270 280 L 270 290 L 280 290 L 280 280 "/>
<path style=" stroke:none;fill-rule:nonzero;fill:rgb(100%,100%,100%);fill-opacity:1;" d="M 140 250 L 140 230 L 150 230 L 150 220 L 160 220 L 160 240 L 150 240 L 150 260 L 140 260 Z M 150 160 L 160 160 L 160 170 L 150 170 Z M 140 290 L 160 290 L 160 280 L 150 280 L 150 270 L 160 270 L 160 280 L 170 280 L 170 270 L 180 270 L 180 260 L 170 260 L 170 240 L 180 240 L 180 260 L 190 260 L 190 230 L 170 230 L 170 220 L 190 220 L 190 210 L 200 210 L 200 200 L 180 200 L 180 210 L 170 210 L 170 200 L 150 200 L 150 210 L 140 210 L 140 200 L 150 200 L 150 190 L 160 190 L 160 180 L 170 180 L 170 150 L 160 150 L 160 140 L 170 140 L 170 130 L 150 130 L 150 140 L 120 140 L 120 130 L 110 130 L 110 140 L 100 140 L 100 150 L 120 150 L 120 160 L 110 160 L 110 170 L 120 170 L 120 180 L 130 180 L 130 150 L 140 150 L 140 190 L 110 190 L 110 200 L 130 200 L 130 210 L 120 210 L 120 220 L 130 220 L 130 240 L 120 240 L 120 250 L 130 250 L 130 280 L 140 280 L 140 290 "/>
<path style=" stroke:none;fill-rule:nonzero;fill:rgb(100%,100%,100%);fill-opacity:1;" d="M 300 280 L 300 270 L 290 270 L 290 240 L 300 240 L 300 230 L 290 230 L 290 220 L 280 220 L 280 280 L 300 280 "/>
<path style=" stroke:none;fill-rule:nonzero;fill:rgb(100%,100%,100%);fill-opacity:1;" d="M 260 270 L 270 270 L 270 250 L 260 250 L 260 270 "/>
<path style=" stroke:none;fill-rule:nonzero;fill:rgb(100%,100%,100%);fill-opacity:1;" d="M 90 260 L 90 270 L 80 270 L 80 280 L 100 280 L 100 270 L 110 270 L 110 260 L 90 260 "/>
<path style=" stroke:none;fill-rule:nonzero;fill:rgb(100%,100%,100%);fill-opacity:1;" d="M 70 260 L 70 240 L 60 240 L 60 260 L 50 260 L 50 230 L 40 230 L 40 250 L 30 250 L 30 270 L 20 270 L 20 240 L 10 240 L 10 250 L 0 250 L 0 260 L 10 260 L 10 270 L 0 270 L 0 290 L 10 290 L 10 280 L 40 280 L 40 270 L 80 270 L 80 260 L 70 260 "/>
<path style=" stroke:none;fill-rule:nonzero;fill:rgb(100%,100%,100%);fill-opacity:1;" d="M 440 260 L 430 260 L 430 270 L 440 270 L 440 290 L 450 290 L 450 280 L 460 280 L 460 260 L 450 260 L 450 250 L 460 250 L 460 240 L 440 240 L 440 260 "/>
<path style=" stroke:none;fill-rule:nonzero;fill:rgb(100%,100%,100%);fill-opacity:1;" d="M 110 260 L 120 260 L 120 250 L 110 250 L 110 260 "/>
<path style=" stroke:none;fill-rule:nonzero;fill:rgb(100%,100%,100%);fill-opacity:1;" d="M 480 240 L 470 240 L 470 250 L 490 250 L 490 260 L 480 260 L 480 270 L 500 270 L 500 240 L 480 240 "/>
<path style=" stroke:none;fill-rule:nonzero;fill:rgb(100%,100%,100%);fill-opacity:1;" d="M 420 250 L 430 250 L 430 240 L 420 240 L 420 250 "/>
<path style=" stroke:none;fill-rule:nonzero;fill:rgb(100%,100%,100%);fill-opacity:1;" d="M 250 250 L 260 250 L 260 240 L 250 240 L 250 250 "/>
<path style=" stroke:none;fill-rule:nonzero;fill:rgb(100%,100%,100%);fill-opacity:1;" d="M 220 240 L 210 240 L 210 250 L 200 250 L 200 270 L 210 270 L 210 260 L 220 260 L 220 240 "/>
<path style=" stroke:none;fill-rule:nonzero;fill:rgb(100%,100%,100%);fill-opacity:1;" d="M 430 240 L 440 240 L 440 230 L 430 230 L 430 240 "/>
<path style=" stroke:none;fill-rule:nonzero;fill:rgb(100%,100%,100%);fill-opacity:1;" d="M 400 230 L 390 230 L 390 250 L 400 250 L 400 260 L 380 260 L 380 270 L 400 270 L 400 280 L 410 280 L 410 290 L 420 290 L 420 300 L 430 300 L 430 280 L 420 280 L 420 260 L 410 260 L 410 240 L 400 240 L 400 230 "/>
<path style=" stroke:none;fill-rule:nonzero;fill:rgb(100%,100%,100%);fill-opacity:1;" d="M 260 240 L 270 240 L 270 220 L 260 220 L 260 240 "/>
<path style=" stroke:none;fill-rule:nonzero;fill:rgb(100%,100%,100%);fill-opacity:1;" d="M 30 230 L 20 230 L 20 240 L 30 240 L 30 230 "/>
<path style=" stroke:none;fill-rule:nonzero;fill:rgb(100%,100%,100%);fill-opacity:1;" d="M 0 230 L 0 240 L 10 240 L 10 230 L 0 230 "/>
<path style=" stroke:none;fill-rule:nonzero;fill:rgb(100%,100%,100%);fill-opacity:1;" d="M 480 220 L 480 230 L 500 230 L 500 220 L 480 220 "/>
<path style=" stroke:none;fill-rule:nonzero;fill:rgb(100%,100%,100%);fill-opacity:1;" d="M 470 220 L 460 220 L 460 230 L 470 230 L 470 220 "/>
<path style=" stroke:none;fill-rule:nonzero;fill:rgb(100%,100%,100%);fill-opacity:1;" d="M 450 230 L 450 220 L 440 220 L 440 230 L 450 230 "/>
<path style=" stroke:none;fill-rule:nonzero;fill:rgb(100%,100%,100%);fill-opacity:1;" d="M 360 190 L 370 190 L 370 200 L 360 200 Z M 320 220 L 300 220 L 300 230 L 340 230 L 340 220 L 360 220 L 360 230 L 340 230 L 340 250 L 310 250 L 310 270 L 340 270 L 340 280 L 330 280 L 330 290 L 350 290 L 350 260 L 360 260 L 360 240 L 370 240 L 370 260 L 380 260 L 380 230 L 370 230 L 370 210 L 380 210 L 380 190 L 400 190 L 400 180 L 370 180 L 370 170 L 380 170 L 380 160 L 390 160 L 390 150 L 400 150 L 400 140 L 390 140 L 390 130 L 370 130 L 370 140 L 380 140 L 380 150 L 370 150 L 370 160 L 360 160 L 360 150 L 340 150 L 340 160 L 350 160 L 350 170 L 360 170 L 360 180 L 340 180 L 340 200 L 350 200 L 350 210 L 330 210 L 330 220 L 320 220 "/>
<path style=" stroke:none;fill-rule:nonzero;fill:rgb(100%,100%,100%);fill-opacity:1;" d="M 230 220 L 230 230 L 250 230 L 250 220 L 230 220 "/>
<path style=" stroke:none;fill-rule:nonzero;fill:rgb(100%,100%,100%);fill-opacity:1;" d="M 210 230 L 220 230 L 220 220 L 210 220 L 210 230 "/>
<path style=" stroke:none;fill-rule:nonzero;fill:rgb(100%,100%,100%);fill-opacity:1;" d="M 200 220 L 190 220 L 190 230 L 200 230 L 200 220 "/>
<path style=" stroke:none;fill-rule:nonzero;fill:rgb(100%,100%,100%);fill-opacity:1;" d="M 120 220 L 110 220 L 110 240 L 120 240 L 120 220 "/>
<path style=" stroke:none;fill-rule:nonzero;fill:rgb(100%,100%,100%);fill-opacity:1;" d="M 290 220 L 300 220 L 300 210 L 330 210 L 330 200 L 300 200 L 300 190 L 280 190 L 280 210 L 290 210 L 290 220 "/>
<path style=" stroke:none;fill-rule:nonzero;fill:rgb(100%,100%,100%);fill-opacity:1;" d="M 280 210 L 270 210 L 270 220 L 280 220 L 280 210 "/>
<path style=" stroke:none;fill-rule:nonzero;fill:rgb(100%,100%,100%);fill-opacity:1;" d="M 220 220 L 230 220 L 230 210 L 220 210 L 220 220 "/>
<path style=" stroke:none;fill-rule:nonzero;fill:rgb(100%,100%,100%);fill-opacity:1;" d="M 210 220 L 210 210 L 200 210 L 200 220 L 210 220 "/>
<path style=" stroke:none;fill-rule:nonzero;fill:rgb(100%,100%,100%);fill-opacity:1;" d="M 100 210 L 100 190 L 110 190 L 110 180 L 100 180 L 100 170 L 90 170 L 90 160 L 80 160 L 80 150 L 60 150 L 60 160 L 70 160 L 70 190 L 90 190 L 90 200 L 50 200 L 50 210 L 60 210 L 60 230 L 80 230 L 80 220 L 70 220 L 70 210 L 90 210 L 90 230 L 80 230 L 80 240 L 90 240 L 90 250 L 100 250 L 100 220 L 110 220 L 110 210 L 100 210 "/>
<path style=" stroke:none;fill-rule:nonzero;fill:rgb(100%,100%,100%);fill-opacity:1;" d="M 0 210 L 0 220 L 20 220 L 20 210 L 0 210 "/>
<path style=" stroke:none;fill-rule:nonzero;fill:rgb(100%,100%,100%);fill-opacity:1;" d="M 390 210 L 390 220 L 400 220 L 400 200 L 390 200 L 390 210 "/>
<path style=" stroke:none;fill-rule:nonzero;fill:rgb(100%,100%,100%);fill-opacity:1;" d="M 210 210 L 220 210 L 220 190 L 210 190 L 210 160 L 190 160 L 190 170 L 200 170 L 200 200 L 210 200 L 210 210 "/>
<path style=" stroke:none;fill-rule:nonzero;fill:rgb(100%,100%,100%);fill-opacity:1;" d="M 20 210 L 30 210 L 30 200 L 20 200 L 20 210 "/>
<path style=" stroke:none;fill-rule:nonzero;fill:rgb(100%,100%,100%);fill-opacity:1;" d="M 500 200 L 500 190 L 490 190 L 490 200 L 500 200 "/>
<path style=" stroke:none;fill-rule:nonzero;fill:rgb(100%,100%,100%);fill-opacity:1;" d="M 430 200 L 420 200 L 420 190 L 400 190 L 400 200 L 410 200 L 410 210 L 420 210 L 420 220 L 410 220 L 410 240 L 420 240 L 420 230 L 430 230 L 430 220 L 440 220 L 440 190 L 430 190 L 430 200 "/>
<path style=" stroke:none;fill-rule:nonzero;fill:rgb(100%,100%,100%);fill-opacity:1;" d="M 40 190 L 30 190 L 30 200 L 50 200 L 50 190 L 40 190 "/>
<path style=" stroke:none;fill-rule:nonzero;fill:rgb(100%,100%,100%);fill-opacity:1;" d="M 10 190 L 10 200 L 20 200 L 20 190 L 10 190 "/>
<path style=" stroke:none;fill-rule:nonzero;fill:rgb(100%,100%,100%);fill-opacity:1;" d="M 480 190 L 490 190 L 490 180 L 480 180 L 480 190 "/>
<path style=" stroke:none;fill-rule:nonzero;fill:rgb(100%,100%,100%);fill-opacity:1;" d="M 310 190 L 320 190 L 320 180 L 310 180 L 310 190 "/>
<path style=" stroke:none;fill-rule:nonzero;fill:rgb(100%,100%,100%);fill-opacity:1;" d="M 30 180 L 30 150 L 20 150 L 20 190 L 30 190 L 30 180 "/>
<path style=" stroke:none;fill-rule:nonzero;fill:rgb(100%,100%,100%);fill-opacity:1;" d="M 490 180 L 500 180 L 500 160 L 490 160 L 490 180 "/>
<path style=" stroke:none;fill-rule:nonzero;fill:rgb(100%,100%,100%);fill-opacity:1;" d="M 330 170 L 320 170 L 320 180 L 330 180 L 330 170 "/>
<path style=" stroke:none;fill-rule:nonzero;fill:rgb(100%,100%,100%);fill-opacity:1;" d="M 260 180 L 260 190 L 270 190 L 270 170 L 260 170 L 260 180 "/>
<path style=" stroke:none;fill-rule:nonzero;fill:rgb(100%,100%,100%);fill-opacity:1;" d="M 220 180 L 220 190 L 230 190 L 230 210 L 250 210 L 250 220 L 260 220 L 260 200 L 250 200 L 250 190 L 240 190 L 240 180 L 230 180 L 230 170 L 220 170 L 220 180 "/>
<path style=" stroke:none;fill-rule:nonzero;fill:rgb(100%,100%,100%);fill-opacity:1;" d="M 180 180 L 190 180 L 190 170 L 180 170 L 180 180 "/>
<path style=" stroke:none;fill-rule:nonzero;fill:rgb(100%,100%,100%);fill-opacity:1;" d="M 10 170 L 10 160 L 0 160 L 0 180 L 10 180 L 10 170 "/>
<path style=" stroke:none;fill-rule:nonzero;fill:rgb(100%,100%,100%);fill-opacity:1;" d="M 300 170 L 310 170 L 310 160 L 290 160 L 290 170 L 300 170 "/>
<path style=" stroke:none;fill-rule:nonzero;fill:rgb(100%,100%,100%);fill-opacity:1;" d="M 270 170 L 280 170 L 280 160 L 270 160 L 270 170 "/>
<path style=" stroke:none;fill-rule:nonzero;fill:rgb(100%,100%,100%);fill-opacity:1;" d="M 50 170 L 50 180 L 60 180 L 60 160 L 50 160 L 50 170 "/>
<path style=" stroke:none;fill-rule:nonzero;fill:rgb(100%,100%,100%);fill-opacity:1;" d="M 470 160 L 490 160 L 490 150 L 500 150 L 500 130 L 480 130 L 480 140 L 470 140 L 470 160 "/>
<path style=" stroke:none;fill-rule:nonzero;fill:rgb(100%,100%,100%);fill-opacity:1;" d="M 410 150 L 400 150 L 400 160 L 390 160 L 390 170 L 410 170 L 410 150 "/>
<path style=" stroke:none;fill-rule:nonzero;fill:rgb(100%,100%,100%);fill-opacity:1;" d="M 280 160 L 290 160 L 290 150 L 280 150 L 280 160 "/>
<path style=" stroke:none;fill-rule:nonzero;fill:rgb(100%,100%,100%);fill-opacity:1;" d="M 270 160 L 270 150 L 230 150 L 230 170 L 240 170 L 240 160 L 250 160 L 250 170 L 260 170 L 260 160 L 270 160 "/>
<path style=" stroke:none;fill-rule:nonzero;fill:rgb(100%,100%,100%);fill-opacity:1;" d="M 90 160 L 100 160 L 100 150 L 90 150 L 90 160 "/>
<path style=" stroke:none;fill-rule:nonzero;fill:rgb(100%,100%,100%);fill-opacity:1;" d="M 330 140 L 320 140 L 320 160 L 330 160 L 330 150 L 340 150 L 340 140 L 330 140 "/>
<path style=" stroke:none;fill-rule:nonzero;fill:rgb(100%,100%,100%);fill-opacity:1;" d="M 220 140 L 220 150 L 230 150 L 230 140 L 220 140 "/>
<path style=" stroke:none;fill-rule:nonzero;fill:rgb(100%,100%,100%);fill-opacity:1;" d="M 200 150 L 210 150 L 210 130 L 200 130 L 200 140 L 190 140 L 190 130 L 200 130 L 200 120 L 180 120 L 180 160 L 190 160 L 190 150 L 200 150 "/>
<path style=" stroke:none;fill-rule:nonzero;fill:rgb(100%,100%,100%);fill-opacity:1;" d="M 50 140 L 50 130 L 60 130 L 60 120 L 50 120 L 50 110 L 40 110 L 40 140 L 30 140 L 30 150 L 40 150 L 40 160 L 50 160 L 50 150 L 60 150 L 60 140 L 50 140 "/>
<path style=" stroke:none;fill-rule:nonzero;fill:rgb(100%,100%,100%);fill-opacity:1;" d="M 300 140 L 290 140 L 290 150 L 310 150 L 310 130 L 300 130 L 300 140 "/>
<path style=" stroke:none;fill-rule:nonzero;fill:rgb(100%,100%,100%);fill-opacity:1;" d="M 240 130 L 230 130 L 230 140 L 240 140 L 240 130 "/>
<path style=" stroke:none;fill-rule:nonzero;fill:rgb(100%,100%,100%);fill-opacity:1;" d="M 20 130 L 10 130 L 10 120 L 0 120 L 0 140 L 10 140 L 10 150 L 20 150 L 20 130 "/>
<path style=" stroke:none;fill-rule:nonzero;fill:rgb(100%,100%,100%);fill-opacity:1;" d="M 420 130 L 400 130 L 400 140 L 420 140 L 420 170 L 410 170 L 410 180 L 420 180 L 420 190 L 430 190 L 430 180 L 440 180 L 440 190 L 450 190 L 450 210 L 460 210 L 460 180 L 470 180 L 470 170 L 460 170 L 460 160 L 440 160 L 440 170 L 430 170 L 430 160 L 440 160 L 440 150 L 430 150 L 430 140 L 440 140 L 440 130 L 430 130 L 430 120 L 420 120 L 420 130 "/>
<path style=" stroke:none;fill-rule:nonzero;fill:rgb(100%,100%,100%);fill-opacity:1;" d="M 310 130 L 320 130 L 320 120 L 310 120 L 310 130 "/>
<path style=" stroke:none;fill-rule:nonzero;fill:rgb(100%,100%,100%);fill-opacity:1;" d="M 260 130 L 270 130 L 270 120 L 250 120 L 250 130 L 260 130 "/>
<path style=" stroke:none;fill-rule:nonzero;fill:rgb(100%,100%,100%);fill-opacity:1;" d="M 220 130 L 230 130 L 230 120 L 220 120 L 220 130 "/>
<path style=" stroke:none;fill-rule:nonzero;fill:rgb(100%,100%,100%);fill-opacity:1;" d="M 140 120 L 130 120 L 130 130 L 150 130 L 150 120 L 140 120 "/>
<path style=" stroke:none;fill-rule:nonzero;fill:rgb(100%,100%,100%);fill-opacity:1;" d="M 100 120 L 100 110 L 80 110 L 80 120 L 70 120 L 70 130 L 60 130 L 60 140 L 80 140 L 80 150 L 90 150 L 90 140 L 100 140 L 100 130 L 110 130 L 110 120 L 100 120 "/>
<path style=" stroke:none;fill-rule:nonzero;fill:rgb(100%,100%,100%);fill-opacity:1;" d="M 30 130 L 30 120 L 20 120 L 20 130 L 30 130 "/>
<path style=" stroke:none;fill-rule:nonzero;fill:rgb(100%,100%,100%);fill-opacity:1;" d="M 390 120 L 400 120 L 400 110 L 390 110 L 390 120 "/>
<path style=" stroke:none;fill-rule:nonzero;fill:rgb(100%,100%,100%);fill-opacity:1;" d="M 330 120 L 330 110 L 320 110 L 320 120 L 330 120 "/>
<path style=" stroke:none;fill-rule:nonzero;fill:rgb(100%,100%,100%);fill-opacity:1;" d="M 150 110 L 150 120 L 170 120 L 170 100 L 160 100 L 160 110 L 150 110 "/>
<path style=" stroke:none;fill-rule:nonzero;fill:rgb(100%,100%,100%);fill-opacity:1;" d="M 20 110 L 30 110 L 30 100 L 0 100 L 0 110 L 10 110 L 10 120 L 20 120 L 20 110 "/>
<path style=" stroke:none;fill-rule:nonzero;fill:rgb(100%,100%,100%);fill-opacity:1;" d="M 450 100 L 450 110 L 430 110 L 430 120 L 450 120 L 450 130 L 460 130 L 460 140 L 470 140 L 470 120 L 460 120 L 460 110 L 470 110 L 470 120 L 480 120 L 480 110 L 500 110 L 500 100 L 470 100 L 470 90 L 460 90 L 460 100 L 450 100 "/>
<path style=" stroke:none;fill-rule:nonzero;fill:rgb(100%,100%,100%);fill-opacity:1;" d="M 350 110 L 340 110 L 340 120 L 350 120 L 350 130 L 360 130 L 360 110 L 370 110 L 370 120 L 380 120 L 380 100 L 360 100 L 360 90 L 350 90 L 350 110 "/>
<path style=" stroke:none;fill-rule:nonzero;fill:rgb(100%,100%,100%);fill-opacity:1;" d="M 210 110 L 210 100 L 200 100 L 200 110 L 210 110 "/>
<path style=" stroke:none;fill-rule:nonzero;fill:rgb(100%,100%,100%);fill-opacity:1;" d="M 140 110 L 140 100 L 120 100 L 120 110 L 110 110 L 110 120 L 130 120 L 130 110 L 140 110 "/>
<path style=" stroke:none;fill-rule:nonzero;fill:rgb(100%,100%,100%);fill-opacity:1;" d="M 110 100 L 120 100 L 120 90 L 110 90 L 110 80 L 100 80 L 100 110 L 110 110 L 110 100 "/>
<path style=" stroke:none;fill-rule:nonzero;fill:rgb(100%,100%,100%);fill-opacity:1;" d="M 330 100 L 330 90 L 320 90 L 320 100 L 330 100 "/>
<path style=" stroke:none;fill-rule:nonzero;fill:rgb(100%,100%,100%);fill-opacity:1;" d="M 310 90 L 290 90 L 290 120 L 280 120 L 280 130 L 270 130 L 270 150 L 280 150 L 280 140 L 290 140 L 290 130 L 300 130 L 300 110 L 320 110 L 320 100 L 310 100 L 310 90 "/>
<path style=" stroke:none;fill-rule:nonzero;fill:rgb(100%,100%,100%);fill-opacity:1;" d="M 260 100 L 260 110 L 270 110 L 270 120 L 280 120 L 280 100 L 270 100 L 270 90 L 260 90 L 260 100 "/>
<path style=" stroke:none;fill-rule:nonzero;fill:rgb(100%,100%,100%);fill-opacity:1;" d="M 140 90 L 140 100 L 160 100 L 160 90 L 140 90 "/>
<path style=" stroke:none;fill-rule:nonzero;fill:rgb(100%,100%,100%);fill-opacity:1;" d="M 90 100 L 90 80 L 80 80 L 80 90 L 70 90 L 70 110 L 80 110 L 80 100 L 90 100 "/>
<path style=" stroke:none;fill-rule:nonzero;fill:rgb(100%,100%,100%);fill-opacity:1;" d="M 50 100 L 60 100 L 60 80 L 40 80 L 40 90 L 30 90 L 30 100 L 50 100 "/>
<path style=" stroke:none;fill-rule:nonzero;fill:rgb(100%,100%,100%);fill-opacity:1;" d="M 410 90 L 410 80 L 390 80 L 390 90 L 410 90 "/>
<path style=" stroke:none;fill-rule:nonzero;fill:rgb(100%,100%,100%);fill-opacity:1;" d="M 370 80 L 360 80 L 360 90 L 370 90 L 370 80 "/>
<path style=" stroke:none;fill-rule:nonzero;fill:rgb(100%,100%,100%);fill-opacity:1;" d="M 350 90 L 350 80 L 340 80 L 340 90 L 350 90 "/>
<path style=" stroke:none;fill-rule:nonzero;fill:rgb(100%,100%,100%);fill-opacity:1;" d="M 310 90 L 320 90 L 320 80 L 310 80 L 310 90 "/>
<path style=" stroke:none;fill-rule:nonzero;fill:rgb(100%,100%,100%);fill-opacity:1;" d="M 280 90 L 280 80 L 270 80 L 270 90 L 280 90 "/>
<path style=" stroke:none;fill-rule:nonzero;fill:rgb(100%,100%,100%);fill-opacity:1;" d="M 130 90 L 140 90 L 140 80 L 130 80 L 130 90 "/>
<path style=" stroke:none;fill-rule:nonzero;fill:rgb(100%,100%,100%);fill-opacity:1;" d="M 380 70 L 370 70 L 370 80 L 380 80 L 380 70 "/>
<path style=" stroke:none;fill-rule:nonzero;fill:rgb(100%,100%,100%);fill-opacity:1;" d="M 120 70 L 110 70 L 110 80 L 120 80 L 120 70 "/>
<path style=" stroke:none;fill-rule:nonzero;fill:rgb(100%,100%,100%);fill-opacity:1;" d="M 470 70 L 480 70 L 480 60 L 470 60 L 470 70 "/>
<path style=" stroke:none;fill-rule:nonzero;fill:rgb(100%,100%,100%);fill-opacity:1;" d="M 410 60 L 400 60 L 400 70 L 410 70 L 410 60 "/>
<path style=" stroke:none;fill-rule:nonzero;fill:rgb(100%,100%,100%);fill-opacity:1;" d="M 310 60 L 310 70 L 320 70 L 320 60 L 310 60 "/>
<path style=" stroke:none;fill-rule:nonzero;fill:rgb(100%,100%,100%);fill-opacity:1;" d="M 60 70 L 60 60 L 50 60 L 50 70 L 60 70 "/>
<path style=" stroke:none;fill-rule:nonzero;fill:rgb(100%,100%,100%);fill-opacity:1;" d="M 40 60 L 30 60 L 30 70 L 20 70 L 20 60 L 10 60 L 10 50 L 20 50 L 20 40 L 10 40 L 10 30 L 20 30 L 20 20 L 30 20 L 30 10 L 20 10 L 20 0 L 10 0 L 10 10 L 0 10 L 0 90 L 10 90 L 10 80 L 40 80 L 40 60 "/>
<path style=" stroke:none;fill-rule:nonzero;fill:rgb(100%,100%,100%);fill-opacity:1;" d="M 480 60 L 490 60 L 490 50 L 480 50 L 480 60 "/>
<path style=" stroke:none;fill-rule:nonzero;fill:rgb(100%,100%,100%);fill-opacity:1;" d="M 330 50 L 320 50 L 320 60 L 330 60 L 330 50 "/>
<path style=" stroke:none;fill-rule:nonzero;fill:rgb(100%,100%,100%);fill-opacity:1;" d="M 300 60 L 300 50 L 290 50 L 290 60 L 300 60 "/>
<path style=" stroke:none;fill-rule:nonzero;fill:rgb(100%,100%,100%);fill-opacity:1;" d="M 110 50 L 100 50 L 100 30 L 90 30 L 90 50 L 70 50 L 70 70 L 90 70 L 90 60 L 100 60 L 100 70 L 110 70 L 110 50 "/>
<path style=" stroke:none;fill-rule:nonzero;fill:rgb(100%,100%,100%);fill-opacity:1;" d="M 50 50 L 40 50 L 40 60 L 50 60 L 50 50 "/>
<path style=" stroke:none;fill-rule:nonzero;fill:rgb(100%,100%,100%);fill-opacity:1;" d="M 30 60 L 30 50 L 20 50 L 20 60 L 30 60 "/>
<path style=" stroke:none;fill-rule:nonzero;fill:rgb(100%,100%,100%);fill-opacity:1;" d="M 490 50 L 500 50 L 500 40 L 490 40 L 490 50 "/>
<path style=" stroke:none;fill-rule:nonzero;fill:rgb(100%,100%,100%);fill-opacity:1;" d="M 470 40 L 460 40 L 460 50 L 480 50 L 480 40 L 470 40 "/>
<path style=" stroke:none;fill-rule:nonzero;fill:rgb(100%,100%,100%);fill-opacity:1;" d="M 370 40 L 370 50 L 390 50 L 390 30 L 380 30 L 380 40 L 370 40 "/>
<path style=" stroke:none;fill-rule:nonzero;fill:rgb(100%,100%,100%);fill-opacity:1;" d="M 320 50 L 320 40 L 330 40 L 330 30 L 340 30 L 340 40 L 330 40 L 330 50 L 340 50 L 340 60 L 330 60 L 330 70 L 320 70 L 320 80 L 340 80 L 340 70 L 350 70 L 350 60 L 360 60 L 360 40 L 370 40 L 370 30 L 360 30 L 360 20 L 350 20 L 350 0 L 330 0 L 330 10 L 340 10 L 340 20 L 330 20 L 330 10 L 310 10 L 310 20 L 320 20 L 320 30 L 310 30 L 310 20 L 300 20 L 300 10 L 290 10 L 290 30 L 300 30 L 300 50 L 320 50 "/>
<path style=" stroke:none;fill-rule:nonzero;fill:rgb(100%,100%,100%);fill-opacity:1;" d="M 290 50 L 290 40 L 280 40 L 280 50 L 290 50 "/>
<path style=" stroke:none;fill-rule:nonzero;fill:rgb(100%,100%,100%);fill-opacity:1;" d="M 180 60 L 190 60 L 190 70 L 170 70 L 170 60 Z M 110 50 L 130 50 L 130 60 L 120 60 L 120 70 L 140 70 L 140 80 L 160 80 L 160 90 L 180 90 L 180 100 L 200 100 L 200 90 L 190 90 L 190 80 L 200 80 L 200 70 L 220 70 L 220 90 L 230 90 L 230 120 L 250 120 L 250 100 L 240 100 L 240 90 L 250 90 L 250 80 L 270 80 L 270 70 L 280 70 L 280 60 L 250 60 L 250 30 L 240 30 L 240 70 L 230 70 L 230 60 L 220 60 L 220 50 L 230 50 L 230 40 L 210 40 L 210 60 L 200 60 L 200 40 L 180 40 L 180 50 L 160 50 L 160 60 L 140 60 L 140 40 L 130 40 L 130 30 L 110 30 L 110 50 "/>
<path style=" stroke:none;fill-rule:nonzero;fill:rgb(100%,100%,100%);fill-opacity:1;" d="M 60 40 L 60 50 L 70 50 L 70 40 L 60 40 "/>
<path style=" stroke:none;fill-rule:nonzero;fill:rgb(100%,100%,100%);fill-opacity:1;" d="M 450 30 L 440 30 L 440 40 L 430 40 L 430 50 L 420 50 L 420 70 L 430 70 L 430 60 L 440 60 L 440 70 L 450 70 L 450 80 L 420 80 L 420 90 L 460 90 L 460 60 L 450 60 L 450 40 L 460 40 L 460 30 L 450 30 "/>
<path style=" stroke:none;fill-rule:nonzero;fill:rgb(100%,100%,100%);fill-opacity:1;" d="M 430 40 L 430 30 L 410 30 L 410 40 L 400 40 L 400 50 L 420 50 L 420 40 L 430 40 "/>
<path style=" stroke:none;fill-rule:nonzero;fill:rgb(100%,100%,100%);fill-opacity:1;" d="M 260 30 L 260 40 L 280 40 L 280 20 L 270 20 L 270 30 L 260 30 "/>
<path style=" stroke:none;fill-rule:nonzero;fill:rgb(100%,100%,100%);fill-opacity:1;" d="M 50 30 L 50 40 L 60 40 L 60 30 L 50 30 "/>
<path style=" stroke:none;fill-rule:nonzero;fill:rgb(100%,100%,100%);fill-opacity:1;" d="M 380 20 L 380 0 L 370 0 L 370 30 L 380 30 L 380 20 "/>
<path style=" stroke:none;fill-rule:nonzero;fill:rgb(100%,100%,100%);fill-opacity:1;" d="M 210 20 L 210 30 L 230 30 L 230 20 L 270 20 L 270 0 L 250 0 L 250 10 L 220 10 L 220 20 L 210 20 "/>
<path style=" stroke:none;fill-rule:nonzero;fill:rgb(100%,100%,100%);fill-opacity:1;" d="M 190 30 L 190 20 L 180 20 L 180 10 L 220 10 L 220 0 L 150 0 L 150 20 L 160 20 L 160 10 L 170 10 L 170 40 L 180 40 L 180 30 L 190 30 "/>
<path style=" stroke:none;fill-rule:nonzero;fill:rgb(100%,100%,100%);fill-opacity:1;" d="M 140 30 L 150 30 L 150 20 L 140 20 L 140 30 "/>
<path style=" stroke:none;fill-rule:nonzero;fill:rgb(100%,100%,100%);fill-opacity:1;" d="M 100 30 L 110 30 L 110 20 L 120 20 L 120 0 L 110 0 L 110 10 L 100 10 L 100 30 "/>
<path style=" stroke:none;fill-rule:nonzero;fill:rgb(100%,100%,100%);fill-opacity:1;" d="M 40 30 L 50 30 L 50 20 L 60 20 L 60 10 L 70 10 L 70 20 L 60 20 L 60 30 L 80 30 L 80 10 L 100 10 L 100 0 L 50 0 L 50 10 L 40 10 L 40 20 L 30 20 L 30 30 L 40 30 "/>
<path style=" stroke:none;fill-rule:nonzero;fill:rgb(100%,100%,100%);fill-opacity:1;" d="M 480 10 L 480 30 L 500 30 L 500 20 L 490 20 L 490 10 L 480 10 "/>
<path style=" stroke:none;fill-rule:nonzero;fill:rgb(100%,100%,100%);fill-opacity:1;" d="M 450 20 L 470 20 L 470 10 L 460 10 L 460 0 L 440 0 L 440 10 L 430 10 L 430 20 L 450 20 "/>
<path style=" stroke:none;fill-rule:nonzero;fill:rgb(100%,100%,100%);fill-opacity:1;" d="M 400 10 L 390 10 L 390 20 L 400 20 L 400 10 "/>
<path style=" stroke:none;fill-rule:nonzero;fill:rgb(100%,100%,100%);fill-opacity:1;" d="M 500 0 L 490 0 L 490 10 L 500 10 L 500 0 "/>
<path style=" stroke:none;fill-rule:nonzero;fill:rgb(100%,100%,100%);fill-opacity:1;" d="M 410 0 L 400 0 L 400 10 L 410 10 L 410 0 "/>
<path style=" stroke:none;fill-rule:nonzero;fill:rgb(100%,100%,100%);fill-opacity:1;" d="M 280 0 L 280 10 L 290 10 L 290 0 L 280 0 "/>
<path style=" stroke:none;fill-rule:nonzero;fill:rgb(14.498901%,16.499329%,14.898682%);fill-opacity:1;" d="M 390 490 L 380 490 L 380 500 L 390 500 L 390 490 "/>
<path style=" stroke:none;fill-rule:nonzero;fill:rgb(14.498901%,16.499329%,14.898682%);fill-opacity:1;" d="M 320 500 L 330 500 L 330 490 L 320 490 L 320 500 "/>
<path style=" stroke:none;fill-rule:nonzero;fill:rgb(14.498901%,16.499329%,14.898682%);fill-opacity:1;" d="M 290 490 L 290 480 L 270 480 L 270 490 L 280 490 L 280 500 L 310 500 L 310 480 L 300 480 L 300 490 L 290 490 "/>
<path style=" stroke:none;fill-rule:nonzero;fill:rgb(14.498901%,16.499329%,14.898682%);fill-opacity:1;" d="M 190 500 L 190 490 L 180 490 L 180 500 L 190 500 "/>
<path style=" stroke:none;fill-rule:nonzero;fill:rgb(14.498901%,16.499329%,14.898682%);fill-opacity:1;" d="M 160 500 L 170 500 L 170 490 L 160 490 L 160 500 "/>
<path style=" stroke:none;fill-rule:nonzero;fill:rgb(14.498901%,16.499329%,14.898682%);fill-opacity:1;" d="M 130 500 L 140 500 L 140 490 L 130 490 L 130 500 "/>
<path style=" stroke:none;fill-rule:nonzero;fill:rgb(14.498901%,16.499329%,14.898682%);fill-opacity:1;" d="M 110 500 L 120 500 L 120 490 L 110 490 L 110 500 "/>
<path style=" stroke:none;fill-rule:nonzero;fill:rgb(14.498901%,16.499329%,14.898682%);fill-opacity:1;" d="M 100 500 L 100 490 L 90 490 L 90 500 L 100 500 "/>
<path style=" stroke:none;fill-rule:nonzero;fill:rgb(14.498901%,16.499329%,14.898682%);fill-opacity:1;" d="M 70 500 L 80 500 L 80 490 L 90 490 L 90 480 L 70 480 L 70 500 "/>
<path style=" stroke:none;fill-rule:nonzero;fill:rgb(14.498901%,16.499329%,14.898682%);fill-opacity:1;" d="M 60 500 L 60 490 L 50 490 L 50 500 L 60 500 "/>
<path style=" stroke:none;fill-rule:nonzero;fill:rgb(14.498901%,16.499329%,14.898682%);fill-opacity:1;" d="M 20 500 L 20 480 L 10 480 L 10 490 L 0 490 L 0 500 L 20 500 "/>
<path style=" stroke:none;fill-rule:nonzero;fill:rgb(14.498901%,16.499329%,14.898682%);fill-opacity:1;" d="M 470 490 L 460 490 L 460 500 L 490 500 L 490 480 L 500 480 L 500 470 L 490 470 L 490 460 L 480 460 L 480 470 L 470 470 L 470 490 "/>
<path style=" stroke:none;fill-rule:nonzero;fill:rgb(14.498901%,16.499329%,14.898682%);fill-opacity:1;" d="M 250 490 L 230 490 L 230 500 L 260 500 L 260 480 L 250 480 L 250 490 "/>
<path style=" stroke:none;fill-rule:nonzero;fill:rgb(14.498901%,16.499329%,14.898682%);fill-opacity:1;" d="M 180 490 L 180 480 L 170 480 L 170 490 L 180 490 "/>
<path style=" stroke:none;fill-rule:nonzero;fill:rgb(14.498901%,16.499329%,14.898682%);fill-opacity:1;" d="M 260 470 L 260 480 L 270 480 L 270 470 L 260 470 "/>
<path style=" stroke:none;fill-rule:nonzero;fill:rgb(14.498901%,16.499329%,14.898682%);fill-opacity:1;" d="M 210 480 L 210 470 L 190 470 L 190 480 L 210 480 "/>
<path style=" stroke:none;fill-rule:nonzero;fill:rgb(14.498901%,16.499329%,14.898682%);fill-opacity:1;" d="M 140 480 L 140 470 L 120 470 L 120 490 L 130 490 L 130 480 L 140 480 "/>
<path style=" stroke:none;fill-rule:nonzero;fill:rgb(14.498901%,16.499329%,14.898682%);fill-opacity:1;" d="M 420 460 L 410 460 L 410 470 L 420 470 L 420 460 "/>
<path style=" stroke:none;fill-rule:nonzero;fill:rgb(14.498901%,16.499329%,14.898682%);fill-opacity:1;" d="M 20 470 L 20 440 L 10 440 L 10 410 L 0 410 L 0 480 L 10 480 L 10 470 L 20 470 "/>
<path style=" stroke:none;fill-rule:nonzero;fill:rgb(14.498901%,16.499329%,14.898682%);fill-opacity:1;" d="M 500 450 L 500 430 L 490 430 L 490 460 L 500 460 L 500 450 "/>
<path style=" stroke:none;fill-rule:nonzero;fill:rgb(14.498901%,16.499329%,14.898682%);fill-opacity:1;" d="M 350 460 L 370 460 L 370 440 L 350 440 L 350 460 "/>
<path style=" stroke:none;fill-rule:nonzero;fill:rgb(14.498901%,16.499329%,14.898682%);fill-opacity:1;" d="M 450 450 L 430 450 L 430 480 L 440 480 L 440 490 L 430 490 L 430 500 L 450 500 L 450 480 L 460 480 L 460 470 L 470 470 L 470 460 L 460 460 L 460 440 L 450 440 L 450 450 "/>
<path style=" stroke:none;fill-rule:nonzero;fill:rgb(14.498901%,16.499329%,14.898682%);fill-opacity:1;" d="M 420 440 L 420 430 L 410 430 L 410 410 L 390 410 L 390 420 L 400 420 L 400 440 L 410 440 L 410 450 L 430 450 L 430 440 L 420 440 "/>
<path style=" stroke:none;fill-rule:nonzero;fill:rgb(14.498901%,16.499329%,14.898682%);fill-opacity:1;" d="M 130 370 L 130 360 L 140 360 L 140 380 L 150 380 L 150 390 L 140 390 L 140 380 L 130 380 Z M 160 340 L 170 340 L 170 350 L 160 350 Z M 200 440 L 200 430 L 160 430 L 160 440 L 150 440 L 150 450 L 130 450 L 130 440 L 140 440 L 140 420 L 120 420 L 120 430 L 110 430 L 110 410 L 130 410 L 130 400 L 140 400 L 140 410 L 150 410 L 150 400 L 160 400 L 160 360 L 170 360 L 170 400 L 160 400 L 160 410 L 150 410 L 150 430 L 160 430 L 160 420 L 170 420 L 170 410 L 180 410 L 180 400 L 190 400 L 190 390 L 200 390 L 200 380 L 180 380 L 180 370 L 190 370 L 190 360 L 180 360 L 180 350 L 210 350 L 210 360 L 220 360 L 220 320 L 210 320 L 210 340 L 190 340 L 190 330 L 200 330 L 200 320 L 180 320 L 180 310 L 170 310 L 170 320 L 160 320 L 160 330 L 150 330 L 150 350 L 130 350 L 130 340 L 120 340 L 120 380 L 110 380 L 110 390 L 120 390 L 120 400 L 110 400 L 110 390 L 100 390 L 100 380 L 90 380 L 90 390 L 80 390 L 80 400 L 100 400 L 100 430 L 90 430 L 90 440 L 100 440 L 100 450 L 90 450 L 90 460 L 80 460 L 80 470 L 110 470 L 110 450 L 120 450 L 120 460 L 140 460 L 140 470 L 150 470 L 150 460 L 160 460 L 160 470 L 150 470 L 150 480 L 140 480 L 140 490 L 160 490 L 160 480 L 170 480 L 170 440 L 180 440 L 180 450 L 190 450 L 190 460 L 210 460 L 210 450 L 200 450 L 200 440 "/>
<path style=" stroke:none;fill-rule:nonzero;fill:rgb(14.498901%,16.499329%,14.898682%);fill-opacity:1;" d="M 80 440 L 80 430 L 70 430 L 70 440 L 50 440 L 50 450 L 30 450 L 30 470 L 40 470 L 40 490 L 50 490 L 50 470 L 60 470 L 60 480 L 70 480 L 70 460 L 60 460 L 60 450 L 70 450 L 70 460 L 80 460 L 80 440 "/>
<path style=" stroke:none;fill-rule:nonzero;fill:rgb(14.498901%,16.499329%,14.898682%);fill-opacity:1;" d="M 460 440 L 470 440 L 470 420 L 460 420 L 460 440 "/>
<path style=" stroke:none;fill-rule:nonzero;fill:rgb(14.498901%,16.499329%,14.898682%);fill-opacity:1;" d="M 390 430 L 380 430 L 380 460 L 390 460 L 390 450 L 400 450 L 400 440 L 390 440 L 390 430 "/>
<path style=" stroke:none;fill-rule:nonzero;fill:rgb(14.498901%,16.499329%,14.898682%);fill-opacity:1;" d="M 370 420 L 370 410 L 360 410 L 360 430 L 380 430 L 380 420 L 370 420 "/>
<path style=" stroke:none;fill-rule:nonzero;fill:rgb(14.498901%,16.499329%,14.898682%);fill-opacity:1;" d="M 500 420 L 500 410 L 490 410 L 490 420 L 500 420 "/>
<path style=" stroke:none;fill-rule:nonzero;fill:rgb(14.498901%,16.499329%,14.898682%);fill-opacity:1;" d="M 330 420 L 310 420 L 310 400 L 300 400 L 300 440 L 310 440 L 310 460 L 300 460 L 300 440 L 280 440 L 280 450 L 290 450 L 290 460 L 280 460 L 280 450 L 270 450 L 270 440 L 280 440 L 280 410 L 290 410 L 290 400 L 270 400 L 270 410 L 260 410 L 260 420 L 270 420 L 270 430 L 250 430 L 250 440 L 210 440 L 210 450 L 230 450 L 230 460 L 220 460 L 220 490 L 230 490 L 230 480 L 240 480 L 240 470 L 260 470 L 260 460 L 250 460 L 250 450 L 260 450 L 260 460 L 270 460 L 270 470 L 290 470 L 290 480 L 300 480 L 300 470 L 330 470 L 330 490 L 340 490 L 340 500 L 370 500 L 370 480 L 400 480 L 400 490 L 410 490 L 410 500 L 420 500 L 420 480 L 410 480 L 410 470 L 350 470 L 350 460 L 320 460 L 320 440 L 330 440 L 330 450 L 340 450 L 340 440 L 350 440 L 350 420 L 340 420 L 340 410 L 330 410 L 330 420 "/>
<path style=" stroke:none;fill-rule:nonzero;fill:rgb(14.498901%,16.499329%,14.898682%);fill-opacity:1;" d="M 250 410 L 230 410 L 230 400 L 220 400 L 220 390 L 200 390 L 200 410 L 210 410 L 210 420 L 200 420 L 200 430 L 220 430 L 220 420 L 230 420 L 230 430 L 250 430 L 250 410 "/>
<path style=" stroke:none;fill-rule:nonzero;fill:rgb(14.498901%,16.499329%,14.898682%);fill-opacity:1;" d="M 190 420 L 200 420 L 200 410 L 180 410 L 180 420 L 190 420 "/>
<path style=" stroke:none;fill-rule:nonzero;fill:rgb(14.498901%,16.499329%,14.898682%);fill-opacity:1;" d="M 90 420 L 90 410 L 80 410 L 80 420 L 90 420 "/>
<path style=" stroke:none;fill-rule:nonzero;fill:rgb(14.498901%,16.499329%,14.898682%);fill-opacity:1;" d="M 70 410 L 50 410 L 50 430 L 70 430 L 70 410 "/>
<path style=" stroke:none;fill-rule:nonzero;fill:rgb(14.498901%,16.499329%,14.898682%);fill-opacity:1;" d="M 20 410 L 20 420 L 30 420 L 30 430 L 40 430 L 40 410 L 20 410 "/>
<path style=" stroke:none;fill-rule:nonzero;fill:rgb(14.498901%,16.499329%,14.898682%);fill-opacity:1;" d="M 250 400 L 250 410 L 260 410 L 260 400 L 250 400 "/>
<path style=" stroke:none;fill-rule:nonzero;fill:rgb(14.498901%,16.499329%,14.898682%);fill-opacity:1;" d="M 70 410 L 80 410 L 80 400 L 70 400 L 70 410 "/>
<path style=" stroke:none;fill-rule:nonzero;fill:rgb(14.498901%,16.499329%,14.898682%);fill-opacity:1;" d="M 470 390 L 470 370 L 450 370 L 450 400 L 480 400 L 480 410 L 490 410 L 490 390 L 470 390 "/>
<path style=" stroke:none;fill-rule:nonzero;fill:rgb(14.498901%,16.499329%,14.898682%);fill-opacity:1;" d="M 260 400 L 270 400 L 270 390 L 260 390 L 260 400 "/>
<path style=" stroke:none;fill-rule:nonzero;fill:rgb(14.498901%,16.499329%,14.898682%);fill-opacity:1;" d="M 240 390 L 230 390 L 230 400 L 240 400 L 240 390 "/>
<path style=" stroke:none;fill-rule:nonzero;fill:rgb(14.498901%,16.499329%,14.898682%);fill-opacity:1;" d="M 30 370 L 30 360 L 40 360 L 40 370 Z M 60 400 L 60 380 L 90 380 L 90 330 L 80 330 L 80 320 L 70 320 L 70 350 L 60 350 L 60 360 L 80 360 L 80 370 L 50 370 L 50 350 L 30 350 L 30 320 L 20 320 L 20 330 L 10 330 L 10 340 L 20 340 L 20 370 L 10 370 L 10 380 L 20 380 L 20 390 L 30 390 L 30 380 L 50 380 L 50 390 L 30 390 L 30 400 L 40 400 L 40 410 L 50 410 L 50 400 L 60 400 "/>
<path style=" stroke:none;fill-rule:nonzero;fill:rgb(14.498901%,16.499329%,14.898682%);fill-opacity:1;" d="M 500 390 L 500 380 L 490 380 L 490 390 L 500 390 "/>
<path style=" stroke:none;fill-rule:nonzero;fill:rgb(14.498901%,16.499329%,14.898682%);fill-opacity:1;" d="M 320 390 L 320 380 L 330 380 L 330 390 Z M 350 380 L 340 380 L 340 370 L 350 370 L 350 360 L 330 360 L 330 370 L 280 370 L 280 380 L 270 380 L 270 390 L 310 390 L 310 400 L 340 400 L 340 410 L 350 410 L 350 390 L 360 390 L 360 380 L 350 380 "/>
<path style=" stroke:none;fill-rule:nonzero;fill:rgb(14.498901%,16.499329%,14.898682%);fill-opacity:1;" d="M 250 380 L 240 380 L 240 390 L 250 390 L 250 380 "/>
<path style=" stroke:none;fill-rule:nonzero;fill:rgb(14.498901%,16.499329%,14.898682%);fill-opacity:1;" d="M 390 370 L 390 380 L 380 380 L 380 370 L 370 370 L 370 390 L 360 390 L 360 400 L 370 400 L 370 410 L 390 410 L 390 400 L 380 400 L 380 390 L 390 390 L 390 400 L 420 400 L 420 410 L 430 410 L 430 430 L 440 430 L 440 440 L 450 440 L 450 420 L 460 420 L 460 410 L 440 410 L 440 380 L 430 380 L 430 390 L 420 390 L 420 380 L 410 380 L 410 390 L 400 390 L 400 380 L 410 380 L 410 370 L 390 370 "/>
<path style=" stroke:none;fill-rule:nonzero;fill:rgb(14.498901%,16.499329%,14.898682%);fill-opacity:1;" d="M 210 370 L 200 370 L 200 380 L 210 380 L 210 370 "/>
<path style=" stroke:none;fill-rule:nonzero;fill:rgb(14.498901%,16.499329%,14.898682%);fill-opacity:1;" d="M 440 360 L 440 370 L 450 370 L 450 360 L 440 360 "/>
<path style=" stroke:none;fill-rule:nonzero;fill:rgb(14.498901%,16.499329%,14.898682%);fill-opacity:1;" d="M 410 370 L 420 370 L 420 360 L 410 360 L 410 370 "/>
<path style=" stroke:none;fill-rule:nonzero;fill:rgb(14.498901%,16.499329%,14.898682%);fill-opacity:1;" d="M 370 370 L 370 360 L 360 360 L 360 370 L 370 370 "/>
<path style=" stroke:none;fill-rule:nonzero;fill:rgb(14.498901%,16.499329%,14.898682%);fill-opacity:1;" d="M 270 360 L 270 340 L 260 340 L 260 350 L 250 350 L 250 370 L 280 370 L 280 360 L 270 360 "/>
<path style=" stroke:none;fill-rule:nonzero;fill:rgb(14.498901%,16.499329%,14.898682%);fill-opacity:1;" d="M 230 370 L 240 370 L 240 360 L 220 360 L 220 370 L 230 370 "/>
<path style=" stroke:none;fill-rule:nonzero;fill:rgb(14.498901%,16.499329%,14.898682%);fill-opacity:1;" d="M 0 360 L 0 370 L 10 370 L 10 360 L 0 360 "/>
<path style=" stroke:none;fill-rule:nonzero;fill:rgb(14.498901%,16.499329%,14.898682%);fill-opacity:1;" d="M 380 360 L 390 360 L 390 350 L 380 350 L 380 360 "/>
<path style=" stroke:none;fill-rule:nonzero;fill:rgb(14.498901%,16.499329%,14.898682%);fill-opacity:1;" d="M 360 350 L 360 340 L 340 340 L 340 350 L 350 350 L 350 360 L 360 360 L 360 350 "/>
<path style=" stroke:none;fill-rule:nonzero;fill:rgb(14.498901%,16.499329%,14.898682%);fill-opacity:1;" d="M 290 350 L 290 360 L 310 360 L 310 350 L 290 350 "/>
<path style=" stroke:none;fill-rule:nonzero;fill:rgb(14.498901%,16.499329%,14.898682%);fill-opacity:1;" d="M 370 340 L 370 350 L 380 350 L 380 340 L 370 340 "/>
<path style=" stroke:none;fill-rule:nonzero;fill:rgb(14.498901%,16.499329%,14.898682%);fill-opacity:1;" d="M 280 340 L 280 350 L 290 350 L 290 340 L 280 340 "/>
<path style=" stroke:none;fill-rule:nonzero;fill:rgb(14.498901%,16.499329%,14.898682%);fill-opacity:1;" d="M 100 350 L 100 360 L 110 360 L 110 340 L 100 340 L 100 350 "/>
<path style=" stroke:none;fill-rule:nonzero;fill:rgb(14.498901%,16.499329%,14.898682%);fill-opacity:1;" d="M 0 350 L 10 350 L 10 340 L 0 340 L 0 350 "/>
<path style=" stroke:none;fill-rule:nonzero;fill:rgb(14.498901%,16.499329%,14.898682%);fill-opacity:1;" d="M 400 330 L 380 330 L 380 340 L 390 340 L 390 350 L 410 350 L 410 340 L 400 340 L 400 330 "/>
<path style=" stroke:none;fill-rule:nonzero;fill:rgb(14.498901%,16.499329%,14.898682%);fill-opacity:1;" d="M 300 340 L 310 340 L 310 350 L 320 350 L 320 360 L 330 360 L 330 340 L 320 340 L 320 330 L 290 330 L 290 340 L 300 340 "/>
<path style=" stroke:none;fill-rule:nonzero;fill:rgb(14.498901%,16.499329%,14.898682%);fill-opacity:1;" d="M 260 340 L 260 320 L 240 320 L 240 350 L 250 350 L 250 340 L 260 340 "/>
<path style=" stroke:none;fill-rule:nonzero;fill:rgb(14.498901%,16.499329%,14.898682%);fill-opacity:1;" d="M 140 330 L 130 330 L 130 340 L 140 340 L 140 330 "/>
<path style=" stroke:none;fill-rule:nonzero;fill:rgb(14.498901%,16.499329%,14.898682%);fill-opacity:1;" d="M 110 330 L 110 340 L 120 340 L 120 330 L 110 330 "/>
<path style=" stroke:none;fill-rule:nonzero;fill:rgb(14.498901%,16.499329%,14.898682%);fill-opacity:1;" d="M 110 330 L 110 320 L 90 320 L 90 330 L 110 330 "/>
<path style=" stroke:none;fill-rule:nonzero;fill:rgb(14.498901%,16.499329%,14.898682%);fill-opacity:1;" d="M 390 320 L 390 310 L 380 310 L 380 300 L 370 300 L 370 330 L 380 330 L 380 320 L 390 320 "/>
<path style=" stroke:none;fill-rule:nonzero;fill:rgb(14.498901%,16.499329%,14.898682%);fill-opacity:1;" d="M 230 310 L 240 310 L 240 290 L 230 290 L 230 280 L 220 280 L 220 320 L 230 320 L 230 310 "/>
<path style=" stroke:none;fill-rule:nonzero;fill:rgb(14.498901%,16.499329%,14.898682%);fill-opacity:1;" d="M 150 310 L 150 320 L 160 320 L 160 310 L 150 310 "/>
<path style=" stroke:none;fill-rule:nonzero;fill:rgb(14.498901%,16.499329%,14.898682%);fill-opacity:1;" d="M 110 320 L 130 320 L 130 310 L 120 310 L 120 300 L 110 300 L 110 320 "/>
<path style=" stroke:none;fill-rule:nonzero;fill:rgb(14.498901%,16.499329%,14.898682%);fill-opacity:1;" d="M 20 320 L 20 310 L 0 310 L 0 330 L 10 330 L 10 320 L 20 320 "/>
<path style=" stroke:none;fill-rule:nonzero;fill:rgb(14.498901%,16.499329%,14.898682%);fill-opacity:1;" d="M 480 300 L 480 310 L 490 310 L 490 320 L 500 320 L 500 290 L 490 290 L 490 300 L 480 300 "/>
<path style=" stroke:none;fill-rule:nonzero;fill:rgb(14.498901%,16.499329%,14.898682%);fill-opacity:1;" d="M 420 310 L 420 320 L 410 320 L 410 340 L 420 340 L 420 360 L 430 360 L 430 350 L 450 350 L 450 360 L 460 360 L 460 350 L 470 350 L 470 370 L 480 370 L 480 380 L 490 380 L 490 370 L 500 370 L 500 360 L 480 360 L 480 350 L 500 350 L 500 340 L 490 340 L 490 330 L 480 330 L 480 340 L 460 340 L 460 310 L 440 310 L 440 330 L 430 330 L 430 300 L 420 300 L 420 310 "/>
<path style=" stroke:none;fill-rule:nonzero;fill:rgb(14.498901%,16.499329%,14.898682%);fill-opacity:1;" d="M 410 300 L 400 300 L 400 320 L 410 320 L 410 300 "/>
<path style=" stroke:none;fill-rule:nonzero;fill:rgb(14.498901%,16.499329%,14.898682%);fill-opacity:1;" d="M 200 310 L 210 310 L 210 300 L 190 300 L 190 290 L 180 290 L 180 310 L 200 310 "/>
<path style=" stroke:none;fill-rule:nonzero;fill:rgb(14.498901%,16.499329%,14.898682%);fill-opacity:1;" d="M 160 300 L 160 310 L 170 310 L 170 300 L 160 300 "/>
<path style=" stroke:none;fill-rule:nonzero;fill:rgb(14.498901%,16.499329%,14.898682%);fill-opacity:1;" d="M 40 310 L 40 330 L 50 330 L 50 350 L 60 350 L 60 310 L 50 310 L 50 290 L 80 290 L 80 300 L 60 300 L 60 310 L 90 310 L 90 290 L 100 290 L 100 300 L 110 300 L 110 280 L 130 280 L 130 250 L 120 250 L 120 260 L 110 260 L 110 270 L 100 270 L 100 280 L 80 280 L 80 270 L 40 270 L 40 280 L 10 280 L 10 290 L 0 290 L 0 300 L 20 300 L 20 310 L 40 310 "/>
<path style=" stroke:none;fill-rule:nonzero;fill:rgb(14.498901%,16.499329%,14.898682%);fill-opacity:1;" d="M 420 300 L 420 290 L 410 290 L 410 300 L 420 300 "/>
<path style=" stroke:none;fill-rule:nonzero;fill:rgb(14.498901%,16.499329%,14.898682%);fill-opacity:1;" d="M 290 310 L 290 300 L 300 300 L 300 310 Z M 330 290 L 330 280 L 340 280 L 340 270 L 310 270 L 310 250 L 340 250 L 340 230 L 300 230 L 300 240 L 290 240 L 290 270 L 300 270 L 300 280 L 280 280 L 280 290 L 270 290 L 270 300 L 280 300 L 280 310 L 270 310 L 270 320 L 280 320 L 280 330 L 290 330 L 290 320 L 320 320 L 320 310 L 340 310 L 340 320 L 330 320 L 330 330 L 360 330 L 360 300 L 350 300 L 350 290 L 330 290 "/>
<path style=" stroke:none;fill-rule:nonzero;fill:rgb(14.498901%,16.499329%,14.898682%);fill-opacity:1;" d="M 130 300 L 130 310 L 140 310 L 140 300 L 160 300 L 160 290 L 140 290 L 140 280 L 130 280 L 130 300 "/>
<path style=" stroke:none;fill-rule:nonzero;fill:rgb(14.498901%,16.499329%,14.898682%);fill-opacity:1;" d="M 410 290 L 410 280 L 400 280 L 400 290 L 410 290 "/>
<path style=" stroke:none;fill-rule:nonzero;fill:rgb(14.498901%,16.499329%,14.898682%);fill-opacity:1;" d="M 150 270 L 150 280 L 160 280 L 160 270 L 150 270 "/>
<path style=" stroke:none;fill-rule:nonzero;fill:rgb(14.498901%,16.499329%,14.898682%);fill-opacity:1;" d="M 90 260 L 110 260 L 110 250 L 120 250 L 120 240 L 110 240 L 110 220 L 100 220 L 100 250 L 90 250 L 90 240 L 80 240 L 80 230 L 60 230 L 60 210 L 50 210 L 50 200 L 30 200 L 30 210 L 20 210 L 20 220 L 0 220 L 0 230 L 10 230 L 10 240 L 20 240 L 20 230 L 30 230 L 30 240 L 20 240 L 20 270 L 30 270 L 30 250 L 40 250 L 40 230 L 50 230 L 50 260 L 60 260 L 60 240 L 70 240 L 70 260 L 80 260 L 80 270 L 90 270 L 90 260 "/>
<path style=" stroke:none;fill-rule:nonzero;fill:rgb(14.498901%,16.499329%,14.898682%);fill-opacity:1;" d="M 10 260 L 0 260 L 0 270 L 10 270 L 10 260 "/>
<path style=" stroke:none;fill-rule:nonzero;fill:rgb(14.498901%,16.499329%,14.898682%);fill-opacity:1;" d="M 370 250 L 370 240 L 360 240 L 360 260 L 350 260 L 350 290 L 360 290 L 360 270 L 370 270 L 370 290 L 390 290 L 390 280 L 400 280 L 400 270 L 380 270 L 380 260 L 370 260 L 370 250 "/>
<path style=" stroke:none;fill-rule:nonzero;fill:rgb(14.498901%,16.499329%,14.898682%);fill-opacity:1;" d="M 150 250 L 150 240 L 160 240 L 160 220 L 150 220 L 150 230 L 140 230 L 140 260 L 150 260 L 150 250 "/>
<path style=" stroke:none;fill-rule:nonzero;fill:rgb(14.498901%,16.499329%,14.898682%);fill-opacity:1;" d="M 180 240 L 170 240 L 170 260 L 180 260 L 180 240 "/>
<path style=" stroke:none;fill-rule:nonzero;fill:rgb(14.498901%,16.499329%,14.898682%);fill-opacity:1;" d="M 0 250 L 10 250 L 10 240 L 0 240 L 0 250 "/>
<path style=" stroke:none;fill-rule:nonzero;fill:rgb(14.498901%,16.499329%,14.898682%);fill-opacity:1;" d="M 420 230 L 420 240 L 430 240 L 430 230 L 420 230 "/>
<path style=" stroke:none;fill-rule:nonzero;fill:rgb(14.498901%,16.499329%,14.898682%);fill-opacity:1;" d="M 130 230 L 130 220 L 120 220 L 120 240 L 130 240 L 130 230 "/>
<path style=" stroke:none;fill-rule:nonzero;fill:rgb(14.498901%,16.499329%,14.898682%);fill-opacity:1;" d="M 430 230 L 440 230 L 440 220 L 430 220 L 430 230 "/>
<path style=" stroke:none;fill-rule:nonzero;fill:rgb(14.498901%,16.499329%,14.898682%);fill-opacity:1;" d="M 410 220 L 420 220 L 420 210 L 410 210 L 410 200 L 400 200 L 400 220 L 390 220 L 390 200 L 400 200 L 400 190 L 380 190 L 380 210 L 370 210 L 370 230 L 380 230 L 380 260 L 400 260 L 400 250 L 390 250 L 390 230 L 400 230 L 400 240 L 410 240 L 410 220 "/>
<path style=" stroke:none;fill-rule:nonzero;fill:rgb(14.498901%,16.499329%,14.898682%);fill-opacity:1;" d="M 360 230 L 360 220 L 340 220 L 340 230 L 360 230 "/>
<path style=" stroke:none;fill-rule:nonzero;fill:rgb(14.498901%,16.499329%,14.898682%);fill-opacity:1;" d="M 300 230 L 300 220 L 290 220 L 290 230 L 300 230 "/>
<path style=" stroke:none;fill-rule:nonzero;fill:rgb(14.498901%,16.499329%,14.898682%);fill-opacity:1;" d="M 250 230 L 230 230 L 230 220 L 220 220 L 220 230 L 210 230 L 210 220 L 200 220 L 200 230 L 190 230 L 190 260 L 180 260 L 180 270 L 170 270 L 170 280 L 160 280 L 160 290 L 180 290 L 180 280 L 220 280 L 220 260 L 210 260 L 210 270 L 200 270 L 200 250 L 210 250 L 210 240 L 220 240 L 220 260 L 230 260 L 230 250 L 240 250 L 240 270 L 250 270 L 250 310 L 260 310 L 260 290 L 270 290 L 270 280 L 280 280 L 280 220 L 270 220 L 270 240 L 260 240 L 260 250 L 270 250 L 270 270 L 260 270 L 260 250 L 250 250 L 250 240 L 260 240 L 260 220 L 250 220 L 250 230 "/>
<path style=" stroke:none;fill-rule:nonzero;fill:rgb(14.498901%,16.499329%,14.898682%);fill-opacity:1;" d="M 180 220 L 170 220 L 170 230 L 190 230 L 190 220 L 180 220 "/>
<path style=" stroke:none;fill-rule:nonzero;fill:rgb(14.498901%,16.499329%,14.898682%);fill-opacity:1;" d="M 90 220 L 90 210 L 70 210 L 70 220 L 80 220 L 80 230 L 90 230 L 90 220 "/>
<path style=" stroke:none;fill-rule:nonzero;fill:rgb(14.498901%,16.499329%,14.898682%);fill-opacity:1;" d="M 310 210 L 300 210 L 300 220 L 330 220 L 330 210 L 310 210 "/>
<path style=" stroke:none;fill-rule:nonzero;fill:rgb(14.498901%,16.499329%,14.898682%);fill-opacity:1;" d="M 290 220 L 290 210 L 280 210 L 280 220 L 290 220 "/>
<path style=" stroke:none;fill-rule:nonzero;fill:rgb(14.498901%,16.499329%,14.898682%);fill-opacity:1;" d="M 240 220 L 250 220 L 250 210 L 230 210 L 230 220 L 240 220 "/>
<path style=" stroke:none;fill-rule:nonzero;fill:rgb(14.498901%,16.499329%,14.898682%);fill-opacity:1;" d="M 210 210 L 210 220 L 220 220 L 220 210 L 210 210 "/>
<path style=" stroke:none;fill-rule:nonzero;fill:rgb(14.498901%,16.499329%,14.898682%);fill-opacity:1;" d="M 190 210 L 190 220 L 200 220 L 200 210 L 190 210 "/>
<path style=" stroke:none;fill-rule:nonzero;fill:rgb(14.498901%,16.499329%,14.898682%);fill-opacity:1;" d="M 120 210 L 130 210 L 130 200 L 110 200 L 110 190 L 100 190 L 100 210 L 110 210 L 110 220 L 120 220 L 120 210 "/>
<path style=" stroke:none;fill-rule:nonzero;fill:rgb(14.498901%,16.499329%,14.898682%);fill-opacity:1;" d="M 220 210 L 230 210 L 230 190 L 220 190 L 220 210 "/>
<path style=" stroke:none;fill-rule:nonzero;fill:rgb(14.498901%,16.499329%,14.898682%);fill-opacity:1;" d="M 210 210 L 210 200 L 200 200 L 200 210 L 210 210 "/>
<path style=" stroke:none;fill-rule:nonzero;fill:rgb(14.498901%,16.499329%,14.898682%);fill-opacity:1;" d="M 140 210 L 150 210 L 150 200 L 140 200 L 140 210 "/>
<path style=" stroke:none;fill-rule:nonzero;fill:rgb(14.498901%,16.499329%,14.898682%);fill-opacity:1;" d="M 10 200 L 10 190 L 20 190 L 20 150 L 10 150 L 10 140 L 0 140 L 0 160 L 10 160 L 10 180 L 0 180 L 0 210 L 20 210 L 20 200 L 10 200 "/>
<path style=" stroke:none;fill-rule:nonzero;fill:rgb(14.498901%,16.499329%,14.898682%);fill-opacity:1;" d="M 430 200 L 430 190 L 420 190 L 420 200 L 430 200 "/>
<path style=" stroke:none;fill-rule:nonzero;fill:rgb(14.498901%,16.499329%,14.898682%);fill-opacity:1;" d="M 370 190 L 360 190 L 360 200 L 370 200 L 370 190 "/>
<path style=" stroke:none;fill-rule:nonzero;fill:rgb(14.498901%,16.499329%,14.898682%);fill-opacity:1;" d="M 70 200 L 90 200 L 90 190 L 70 190 L 70 160 L 60 160 L 60 180 L 50 180 L 50 160 L 40 160 L 40 150 L 30 150 L 30 190 L 50 190 L 50 200 L 70 200 "/>
<path style=" stroke:none;fill-rule:nonzero;fill:rgb(14.498901%,16.499329%,14.898682%);fill-opacity:1;" d="M 20 190 L 20 200 L 30 200 L 30 190 L 20 190 "/>
<path style=" stroke:none;fill-rule:nonzero;fill:rgb(14.498901%,16.499329%,14.898682%);fill-opacity:1;" d="M 500 190 L 500 180 L 490 180 L 490 190 L 500 190 "/>
<path style=" stroke:none;fill-rule:nonzero;fill:rgb(14.498901%,16.499329%,14.898682%);fill-opacity:1;" d="M 440 180 L 430 180 L 430 190 L 440 190 L 440 180 "/>
<path style=" stroke:none;fill-rule:nonzero;fill:rgb(14.498901%,16.499329%,14.898682%);fill-opacity:1;" d="M 390 170 L 390 160 L 380 160 L 380 170 L 370 170 L 370 180 L 400 180 L 400 190 L 420 190 L 420 180 L 410 180 L 410 170 L 390 170 "/>
<path style=" stroke:none;fill-rule:nonzero;fill:rgb(14.498901%,16.499329%,14.898682%);fill-opacity:1;" d="M 430 170 L 440 170 L 440 160 L 430 160 L 430 170 "/>
<path style=" stroke:none;fill-rule:nonzero;fill:rgb(14.498901%,16.499329%,14.898682%);fill-opacity:1;" d="M 260 160 L 260 170 L 270 170 L 270 160 L 260 160 "/>
<path style=" stroke:none;fill-rule:nonzero;fill:rgb(14.498901%,16.499329%,14.898682%);fill-opacity:1;" d="M 160 160 L 150 160 L 150 170 L 160 170 L 160 160 "/>
<path style=" stroke:none;fill-rule:nonzero;fill:rgb(14.498901%,16.499329%,14.898682%);fill-opacity:1;" d="M 90 160 L 90 170 L 100 170 L 100 180 L 110 180 L 110 190 L 140 190 L 140 150 L 130 150 L 130 180 L 120 180 L 120 170 L 110 170 L 110 160 L 120 160 L 120 150 L 100 150 L 100 160 L 90 160 "/>
<path style=" stroke:none;fill-rule:nonzero;fill:rgb(14.498901%,16.499329%,14.898682%);fill-opacity:1;" d="M 500 150 L 490 150 L 490 160 L 500 160 L 500 150 "/>
<path style=" stroke:none;fill-rule:nonzero;fill:rgb(14.498901%,16.499329%,14.898682%);fill-opacity:1;" d="M 400 150 L 390 150 L 390 160 L 400 160 L 400 150 "/>
<path style=" stroke:none;fill-rule:nonzero;fill:rgb(14.498901%,16.499329%,14.898682%);fill-opacity:1;" d="M 270 150 L 270 160 L 280 160 L 280 150 L 270 150 "/>
<path style=" stroke:none;fill-rule:nonzero;fill:rgb(14.498901%,16.499329%,14.898682%);fill-opacity:1;" d="M 230 150 L 220 150 L 220 140 L 230 140 L 230 130 L 220 130 L 220 120 L 230 120 L 230 90 L 220 90 L 220 70 L 200 70 L 200 80 L 190 80 L 190 90 L 200 90 L 200 100 L 210 100 L 210 110 L 200 110 L 200 100 L 180 100 L 180 90 L 160 90 L 160 100 L 170 100 L 170 120 L 150 120 L 150 130 L 170 130 L 170 140 L 160 140 L 160 150 L 170 150 L 170 180 L 160 180 L 160 190 L 150 190 L 150 200 L 170 200 L 170 210 L 180 210 L 180 200 L 200 200 L 200 170 L 190 170 L 190 180 L 180 180 L 180 170 L 190 170 L 190 160 L 180 160 L 180 120 L 200 120 L 200 130 L 210 130 L 210 150 L 190 150 L 190 160 L 210 160 L 210 190 L 220 190 L 220 170 L 230 170 L 230 150 "/>
<path style=" stroke:none;fill-rule:nonzero;fill:rgb(14.498901%,16.499329%,14.898682%);fill-opacity:1;" d="M 80 150 L 80 160 L 90 160 L 90 150 L 80 150 "/>
<path style=" stroke:none;fill-rule:nonzero;fill:rgb(14.498901%,16.499329%,14.898682%);fill-opacity:1;" d="M 50 160 L 60 160 L 60 150 L 50 150 L 50 160 "/>
<path style=" stroke:none;fill-rule:nonzero;fill:rgb(14.498901%,16.499329%,14.898682%);fill-opacity:1;" d="M 410 150 L 410 170 L 420 170 L 420 140 L 400 140 L 400 150 L 410 150 "/>
<path style=" stroke:none;fill-rule:nonzero;fill:rgb(14.498901%,16.499329%,14.898682%);fill-opacity:1;" d="M 280 140 L 280 150 L 290 150 L 290 140 L 280 140 "/>
<path style=" stroke:none;fill-rule:nonzero;fill:rgb(14.498901%,16.499329%,14.898682%);fill-opacity:1;" d="M 90 150 L 100 150 L 100 140 L 90 140 L 90 150 "/>
<path style=" stroke:none;fill-rule:nonzero;fill:rgb(14.498901%,16.499329%,14.898682%);fill-opacity:1;" d="M 70 140 L 60 140 L 60 150 L 80 150 L 80 140 L 70 140 "/>
<path style=" stroke:none;fill-rule:nonzero;fill:rgb(14.498901%,16.499329%,14.898682%);fill-opacity:1;" d="M 30 140 L 40 140 L 40 110 L 50 110 L 50 120 L 60 120 L 60 130 L 70 130 L 70 120 L 80 120 L 80 110 L 70 110 L 70 90 L 80 90 L 80 80 L 90 80 L 90 100 L 80 100 L 80 110 L 100 110 L 100 80 L 110 80 L 110 70 L 100 70 L 100 60 L 90 60 L 90 70 L 70 70 L 70 50 L 60 50 L 60 40 L 50 40 L 50 30 L 30 30 L 30 20 L 20 20 L 20 30 L 10 30 L 10 40 L 20 40 L 20 50 L 30 50 L 30 60 L 40 60 L 40 50 L 50 50 L 50 60 L 60 60 L 60 70 L 50 70 L 50 60 L 40 60 L 40 80 L 60 80 L 60 100 L 30 100 L 30 110 L 20 110 L 20 120 L 30 120 L 30 130 L 20 130 L 20 150 L 30 150 L 30 140 "/>
<path style=" stroke:none;fill-rule:nonzero;fill:rgb(14.498901%,16.499329%,14.898682%);fill-opacity:1;" d="M 480 130 L 500 130 L 500 110 L 480 110 L 480 120 L 470 120 L 470 140 L 480 140 L 480 130 "/>
<path style=" stroke:none;fill-rule:nonzero;fill:rgb(14.498901%,16.499329%,14.898682%);fill-opacity:1;" d="M 300 130 L 290 130 L 290 140 L 300 140 L 300 130 "/>
<path style=" stroke:none;fill-rule:nonzero;fill:rgb(14.498901%,16.499329%,14.898682%);fill-opacity:1;" d="M 190 140 L 200 140 L 200 130 L 190 130 L 190 140 "/>
<path style=" stroke:none;fill-rule:nonzero;fill:rgb(14.498901%,16.499329%,14.898682%);fill-opacity:1;" d="M 130 130 L 130 120 L 110 120 L 110 130 L 120 130 L 120 140 L 150 140 L 150 130 L 130 130 "/>
<path style=" stroke:none;fill-rule:nonzero;fill:rgb(14.498901%,16.499329%,14.898682%);fill-opacity:1;" d="M 100 140 L 110 140 L 110 130 L 100 130 L 100 140 "/>
<path style=" stroke:none;fill-rule:nonzero;fill:rgb(14.498901%,16.499329%,14.898682%);fill-opacity:1;" d="M 50 140 L 60 140 L 60 130 L 50 130 L 50 140 "/>
<path style=" stroke:none;fill-rule:nonzero;fill:rgb(14.498901%,16.499329%,14.898682%);fill-opacity:1;" d="M 470 230 L 460 230 L 460 220 L 470 220 Z M 440 130 L 440 140 L 430 140 L 430 150 L 440 150 L 440 160 L 460 160 L 460 170 L 470 170 L 470 180 L 460 180 L 460 210 L 450 210 L 450 190 L 440 190 L 440 220 L 450 220 L 450 230 L 440 230 L 440 240 L 460 240 L 460 250 L 450 250 L 450 260 L 460 260 L 460 280 L 450 280 L 450 290 L 440 290 L 440 270 L 430 270 L 430 260 L 440 260 L 440 240 L 430 240 L 430 250 L 420 250 L 420 240 L 410 240 L 410 260 L 420 260 L 420 280 L 430 280 L 430 300 L 470 300 L 470 280 L 480 280 L 480 290 L 490 290 L 490 280 L 500 280 L 500 270 L 480 270 L 480 260 L 490 260 L 490 250 L 470 250 L 470 240 L 500 240 L 500 230 L 480 230 L 480 220 L 500 220 L 500 200 L 490 200 L 490 190 L 480 190 L 480 180 L 490 180 L 490 160 L 470 160 L 470 140 L 460 140 L 460 130 L 450 130 L 450 120 L 430 120 L 430 130 L 440 130 "/>
<path style=" stroke:none;fill-rule:nonzero;fill:rgb(14.498901%,16.499329%,14.898682%);fill-opacity:1;" d="M 270 130 L 280 130 L 280 120 L 270 120 L 270 130 "/>
<path style=" stroke:none;fill-rule:nonzero;fill:rgb(14.498901%,16.499329%,14.898682%);fill-opacity:1;" d="M 240 130 L 240 140 L 230 140 L 230 150 L 270 150 L 270 130 L 250 130 L 250 120 L 230 120 L 230 130 L 240 130 "/>
<path style=" stroke:none;fill-rule:nonzero;fill:rgb(14.498901%,16.499329%,14.898682%);fill-opacity:1;" d="M 10 120 L 10 130 L 20 130 L 20 120 L 10 120 "/>
<path style=" stroke:none;fill-rule:nonzero;fill:rgb(14.498901%,16.499329%,14.898682%);fill-opacity:1;" d="M 460 110 L 460 120 L 470 120 L 470 110 L 460 110 "/>
<path style=" stroke:none;fill-rule:nonzero;fill:rgb(14.498901%,16.499329%,14.898682%);fill-opacity:1;" d="M 300 110 L 300 130 L 310 130 L 310 120 L 320 120 L 320 110 L 300 110 "/>
<path style=" stroke:none;fill-rule:nonzero;fill:rgb(14.498901%,16.499329%,14.898682%);fill-opacity:1;" d="M 270 120 L 270 110 L 260 110 L 260 90 L 270 90 L 270 80 L 250 80 L 250 90 L 240 90 L 240 100 L 250 100 L 250 120 L 270 120 "/>
<path style=" stroke:none;fill-rule:nonzero;fill:rgb(14.498901%,16.499329%,14.898682%);fill-opacity:1;" d="M 110 120 L 110 110 L 100 110 L 100 120 L 110 120 "/>
<path style=" stroke:none;fill-rule:nonzero;fill:rgb(14.498901%,16.499329%,14.898682%);fill-opacity:1;" d="M 0 110 L 0 120 L 10 120 L 10 110 L 0 110 "/>
<path style=" stroke:none;fill-rule:nonzero;fill:rgb(14.498901%,16.499329%,14.898682%);fill-opacity:1;" d="M 140 100 L 140 110 L 130 110 L 130 120 L 150 120 L 150 110 L 160 110 L 160 100 L 140 100 "/>
<path style=" stroke:none;fill-rule:nonzero;fill:rgb(14.498901%,16.499329%,14.898682%);fill-opacity:1;" d="M 120 100 L 110 100 L 110 110 L 120 110 L 120 100 "/>
<path style=" stroke:none;fill-rule:nonzero;fill:rgb(14.498901%,16.499329%,14.898682%);fill-opacity:1;" d="M 310 100 L 320 100 L 320 90 L 310 90 L 310 100 "/>
<path style=" stroke:none;fill-rule:nonzero;fill:rgb(14.498901%,16.499329%,14.898682%);fill-opacity:1;" d="M 150 90 L 160 90 L 160 80 L 140 80 L 140 90 L 150 90 "/>
<path style=" stroke:none;fill-rule:nonzero;fill:rgb(14.498901%,16.499329%,14.898682%);fill-opacity:1;" d="M 120 90 L 120 100 L 140 100 L 140 90 L 130 90 L 130 80 L 140 80 L 140 70 L 120 70 L 120 80 L 110 80 L 110 90 L 120 90 "/>
<path style=" stroke:none;fill-rule:nonzero;fill:rgb(14.498901%,16.499329%,14.898682%);fill-opacity:1;" d="M 40 90 L 40 80 L 10 80 L 10 90 L 0 90 L 0 100 L 30 100 L 30 90 L 40 90 "/>
<path style=" stroke:none;fill-rule:nonzero;fill:rgb(14.498901%,16.499329%,14.898682%);fill-opacity:1;" d="M 480 60 L 480 70 L 470 70 L 470 60 L 480 60 L 480 50 L 460 50 L 460 40 L 450 40 L 450 60 L 460 60 L 460 90 L 470 90 L 470 100 L 500 100 L 500 50 L 490 50 L 490 60 L 480 60 "/>
<path style=" stroke:none;fill-rule:nonzero;fill:rgb(14.498901%,16.499329%,14.898682%);fill-opacity:1;" d="M 320 70 L 330 70 L 330 60 L 320 60 L 320 70 "/>
<path style=" stroke:none;fill-rule:nonzero;fill:rgb(14.498901%,16.499329%,14.898682%);fill-opacity:1;" d="M 190 70 L 190 60 L 170 60 L 170 70 L 190 70 "/>
<path style=" stroke:none;fill-rule:nonzero;fill:rgb(14.498901%,16.499329%,14.898682%);fill-opacity:1;" d="M 120 60 L 130 60 L 130 50 L 110 50 L 110 70 L 120 70 L 120 60 "/>
<path style=" stroke:none;fill-rule:nonzero;fill:rgb(14.498901%,16.499329%,14.898682%);fill-opacity:1;" d="M 20 70 L 30 70 L 30 60 L 20 60 L 20 70 "/>
<path style=" stroke:none;fill-rule:nonzero;fill:rgb(14.498901%,16.499329%,14.898682%);fill-opacity:1;" d="M 340 60 L 340 50 L 330 50 L 330 60 L 340 60 "/>
<path style=" stroke:none;fill-rule:nonzero;fill:rgb(14.498901%,16.499329%,14.898682%);fill-opacity:1;" d="M 10 50 L 10 60 L 20 60 L 20 50 L 10 50 "/>
<path style=" stroke:none;fill-rule:nonzero;fill:rgb(14.498901%,16.499329%,14.898682%);fill-opacity:1;" d="M 430 40 L 420 40 L 420 50 L 430 50 L 430 40 "/>
<path style=" stroke:none;fill-rule:nonzero;fill:rgb(14.498901%,16.499329%,14.898682%);fill-opacity:1;" d="M 330 40 L 320 40 L 320 50 L 330 50 L 330 40 "/>
<path style=" stroke:none;fill-rule:nonzero;fill:rgb(14.498901%,16.499329%,14.898682%);fill-opacity:1;" d="M 100 50 L 110 50 L 110 30 L 100 30 L 100 50 "/>
<path style=" stroke:none;fill-rule:nonzero;fill:rgb(14.498901%,16.499329%,14.898682%);fill-opacity:1;" d="M 380 30 L 370 30 L 370 40 L 380 40 L 380 30 "/>
<path style=" stroke:none;fill-rule:nonzero;fill:rgb(14.498901%,16.499329%,14.898682%);fill-opacity:1;" d="M 340 30 L 330 30 L 330 40 L 340 40 L 340 30 "/>
<path style=" stroke:none;fill-rule:nonzero;fill:rgb(14.498901%,16.499329%,14.898682%);fill-opacity:1;" d="M 200 40 L 200 60 L 210 60 L 210 40 L 230 40 L 230 50 L 220 50 L 220 60 L 230 60 L 230 70 L 240 70 L 240 30 L 250 30 L 250 60 L 280 60 L 280 70 L 270 70 L 270 80 L 280 80 L 280 90 L 270 90 L 270 100 L 280 100 L 280 120 L 290 120 L 290 90 L 310 90 L 310 80 L 320 80 L 320 70 L 310 70 L 310 60 L 320 60 L 320 50 L 300 50 L 300 60 L 290 60 L 290 50 L 280 50 L 280 40 L 260 40 L 260 30 L 270 30 L 270 20 L 230 20 L 230 30 L 210 30 L 210 20 L 220 20 L 220 10 L 180 10 L 180 20 L 190 20 L 190 30 L 180 30 L 180 40 L 200 40 "/>
<path style=" stroke:none;fill-rule:nonzero;fill:rgb(14.498901%,16.499329%,14.898682%);fill-opacity:1;" d="M 70 40 L 70 50 L 90 50 L 90 30 L 100 30 L 100 10 L 80 10 L 80 30 L 60 30 L 60 40 L 70 40 "/>
<path style=" stroke:none;fill-rule:nonzero;fill:rgb(14.498901%,16.499329%,14.898682%);fill-opacity:1;" d="M 320 30 L 320 20 L 310 20 L 310 30 L 320 30 "/>
<path style=" stroke:none;fill-rule:nonzero;fill:rgb(14.498901%,16.499329%,14.898682%);fill-opacity:1;" d="M 280 30 L 280 40 L 290 40 L 290 50 L 300 50 L 300 30 L 290 30 L 290 10 L 280 10 L 280 0 L 270 0 L 270 20 L 280 20 L 280 30 "/>
<path style=" stroke:none;fill-rule:nonzero;fill:rgb(14.498901%,16.499329%,14.898682%);fill-opacity:1;" d="M 130 30 L 130 40 L 140 40 L 140 60 L 160 60 L 160 50 L 180 50 L 180 40 L 170 40 L 170 10 L 160 10 L 160 20 L 150 20 L 150 30 L 140 30 L 140 20 L 150 20 L 150 0 L 120 0 L 120 20 L 110 20 L 110 30 L 130 30 "/>
<path style=" stroke:none;fill-rule:nonzero;fill:rgb(14.498901%,16.499329%,14.898682%);fill-opacity:1;" d="M 60 20 L 50 20 L 50 30 L 60 30 L 60 20 "/>
<path style=" stroke:none;fill-rule:nonzero;fill:rgb(14.498901%,16.499329%,14.898682%);fill-opacity:1;" d="M 500 20 L 500 10 L 490 10 L 490 20 L 500 20 "/>
<path style=" stroke:none;fill-rule:nonzero;fill:rgb(14.498901%,16.499329%,14.898682%);fill-opacity:1;" d="M 370 10 L 370 0 L 350 0 L 350 20 L 360 20 L 360 30 L 370 30 L 370 10 "/>
<path style=" stroke:none;fill-rule:nonzero;fill:rgb(14.498901%,16.499329%,14.898682%);fill-opacity:1;" d="M 340 20 L 340 10 L 330 10 L 330 20 L 340 20 "/>
<path style=" stroke:none;fill-rule:nonzero;fill:rgb(14.498901%,16.499329%,14.898682%);fill-opacity:1;" d="M 300 20 L 310 20 L 310 10 L 330 10 L 330 0 L 290 0 L 290 10 L 300 10 L 300 20 "/>
<path style=" stroke:none;fill-rule:nonzero;fill:rgb(14.498901%,16.499329%,14.898682%);fill-opacity:1;" d="M 70 10 L 60 10 L 60 20 L 70 20 L 70 10 "/>
<path style=" stroke:none;fill-rule:nonzero;fill:rgb(14.498901%,16.499329%,14.898682%);fill-opacity:1;" d="M 40 10 L 50 10 L 50 0 L 20 0 L 20 10 L 30 10 L 30 20 L 40 20 L 40 10 "/>
<path style=" stroke:none;fill-rule:nonzero;fill:rgb(14.498901%,16.499329%,14.898682%);fill-opacity:1;" d="M 410 60 L 410 70 L 400 70 L 400 60 Z M 410 90 L 390 90 L 390 80 L 410 80 Z M 390 120 L 390 110 L 400 110 L 400 120 Z M 330 170 L 330 180 L 320 180 L 320 190 L 310 190 L 310 180 L 320 180 L 320 170 Z M 480 0 L 460 0 L 460 10 L 470 10 L 470 20 L 430 20 L 430 10 L 440 10 L 440 0 L 410 0 L 410 10 L 400 10 L 400 20 L 390 20 L 390 10 L 400 10 L 400 0 L 380 0 L 380 30 L 390 30 L 390 50 L 370 50 L 370 40 L 360 40 L 360 60 L 350 60 L 350 70 L 340 70 L 340 80 L 350 80 L 350 90 L 360 90 L 360 80 L 370 80 L 370 70 L 380 70 L 380 80 L 370 80 L 370 90 L 360 90 L 360 100 L 380 100 L 380 120 L 370 120 L 370 110 L 360 110 L 360 130 L 350 130 L 350 120 L 340 120 L 340 110 L 350 110 L 350 90 L 340 90 L 340 80 L 320 80 L 320 90 L 330 90 L 330 100 L 320 100 L 320 110 L 330 110 L 330 120 L 320 120 L 320 130 L 310 130 L 310 150 L 290 150 L 290 160 L 310 160 L 310 170 L 290 170 L 290 160 L 280 160 L 280 170 L 270 170 L 270 190 L 260 190 L 260 170 L 250 170 L 250 160 L 240 160 L 240 170 L 230 170 L 230 180 L 240 180 L 240 190 L 250 190 L 250 200 L 260 200 L 260 220 L 270 220 L 270 210 L 280 210 L 280 190 L 300 190 L 300 200 L 330 200 L 330 210 L 350 210 L 350 200 L 340 200 L 340 180 L 360 180 L 360 170 L 350 170 L 350 160 L 340 160 L 340 150 L 330 150 L 330 160 L 320 160 L 320 140 L 340 140 L 340 150 L 360 150 L 360 160 L 370 160 L 370 150 L 380 150 L 380 140 L 370 140 L 370 130 L 390 130 L 390 140 L 400 140 L 400 130 L 420 130 L 420 120 L 430 120 L 430 110 L 450 110 L 450 100 L 460 100 L 460 90 L 420 90 L 420 80 L 450 80 L 450 70 L 440 70 L 440 60 L 430 60 L 430 70 L 420 70 L 420 50 L 400 50 L 400 40 L 410 40 L 410 30 L 430 30 L 430 40 L 440 40 L 440 30 L 460 30 L 460 40 L 480 40 L 480 50 L 490 50 L 490 40 L 500 40 L 500 30 L 480 30 L 480 10 L 490 10 L 490 0 L 480 0 "/>
<path style=" stroke:none;fill-rule:nonzero;fill:rgb(14.498901%,16.499329%,14.898682%);fill-opacity:1;" d="M 240 10 L 250 10 L 250 0 L 220 0 L 220 10 L 240 10 "/>
<path style=" stroke:none;fill-rule:nonzero;fill:rgb(14.498901%,16.499329%,14.898682%);fill-opacity:1;" d="M 110 0 L 100 0 L 100 10 L 110 10 L 110 0 "/>
<path style=" stroke:none;fill-rule:nonzero;fill:rgb(14.498901%,16.499329%,14.898682%);fill-opacity:1;" d="M 10 0 L 0 0 L 0 10 L 10 10 L 10 0 "/>
</g>
</svg>
